<?xml version="1.0" encoding="utf-8" standalone="no"?>
<!DOCTYPE svg PUBLIC "-//W3C//DTD SVG 1.1//EN"
  "http://www.w3.org/Graphics/SVG/1.1/DTD/svg11.dtd">
<svg xmlns:xlink="http://www.w3.org/1999/xlink" width="288pt" height="144pt" viewBox="0 0 288 144" xmlns="http://www.w3.org/2000/svg" version="1.1">
 <metadata>
  <rdf:RDF xmlns:dc="http://purl.org/dc/elements/1.1/" xmlns:cc="http://creativecommons.org/ns#" xmlns:rdf="http://www.w3.org/1999/02/22-rdf-syntax-ns#">
   <cc:Work>
    <dc:type rdf:resource="http://purl.org/dc/dcmitype/StillImage"/>
    <dc:date>2023-07-05T09:16:16.915560</dc:date>
    <dc:format>image/svg+xml</dc:format>
    <dc:creator>
     <cc:Agent>
      <dc:title>Matplotlib v3.7.1, https://matplotlib.org/</dc:title>
     </cc:Agent>
    </dc:creator>
   </cc:Work>
  </rdf:RDF>
 </metadata>
 <defs>
  <style type="text/css">*{stroke-linejoin: round; stroke-linecap: butt}</style>
 </defs>
 <g id="figure_1">
  <g id="patch_1">
   <path d="M 0 144 
L 288 144 
L 288 0 
L 0 0 
L 0 144 
z
" style="fill: none"/>
  </g>
  <g id="axes_1">
   <g id="patch_2">
    <path d="M 36 126 
L 137.454545 126 
L 137.454545 17.28 
L 36 17.28 
z
" style="fill: #ffffff"/>
   </g>
   <g id="PolyCollection_1">
    <defs>
     <path id="mbb3a0db7a2" d="M 40.61157 -21.907434 
L 40.61157 -28.414375 
L 41.543201 -28.462911 
L 42.474831 -28.934756 
L 43.406461 -29.908709 
L 44.338092 -31.375178 
L 45.269722 -33.201255 
L 46.201352 -35.129449 
L 47.132983 -36.820287 
L 48.064613 -37.931836 
L 48.996243 -38.210736 
L 49.927874 -37.560223 
L 50.859504 -36.05787 
L 51.791134 -33.918213 
L 52.722765 -31.422087 
L 53.654395 -28.848598 
L 54.586026 -26.437215 
L 55.517656 -24.383045 
L 56.449286 -22.847345 
L 57.380917 -21.9621 
L 58.312547 -21.820389 
L 59.244177 -22.459393 
L 60.175808 -23.848906 
L 61.107438 -25.89335 
L 62.039068 -28.446025 
L 62.970699 -31.327795 
L 63.902329 -34.342518 
L 64.833959 -37.286872 
L 65.76559 -39.958058 
L 66.69722 -42.164321 
L 67.62885 -43.739728 
L 68.560481 -44.559947 
L 69.492111 -44.55465 
L 70.423742 -43.715349 
L 71.355372 -42.10095 
L 72.287002 -39.842999 
L 73.218633 -37.148223 
L 74.150263 -34.291931 
L 75.081893 -31.595732 
L 76.013524 -29.387287 
L 76.945154 -27.946563 
L 77.876784 -27.45041 
L 78.808415 -27.932645 
L 79.740045 -29.275727 
L 80.671675 -31.239626 
L 81.603306 -33.51752 
L 82.534936 -35.796642 
L 83.466566 -37.803889 
L 84.398197 -39.328017 
L 85.329827 -40.223728 
L 86.261458 -40.408782 
L 87.193088 -39.861862 
L 88.124718 -38.621386 
L 89.056349 -36.780485 
L 89.987979 -34.474708 
L 90.919609 -31.865515 
L 91.85124 -29.128366 
L 92.78287 -26.452616 
L 93.7145 -24.050679 
L 94.646131 -22.163159 
L 95.577761 -21.04451 
L 96.509391 -20.922876 
L 97.441022 -21.942012 
L 98.372652 -24.104294 
L 99.304282 -27.237523 
L 100.235913 -31.00389 
L 101.167543 -34.95646 
L 102.099174 -38.628393 
L 103.030804 -41.621513 
L 103.962434 -43.658457 
L 104.894065 -44.584102 
L 105.825695 -44.33525 
L 106.757325 -42.916536 
L 107.688956 -40.40818 
L 108.620586 -36.997789 
L 109.552216 -33.002632 
L 110.483847 -28.85159 
L 111.415477 -25.022122 
L 112.347107 -21.954913 
L 113.278738 -19.978501 
L 114.210368 -19.26591 
L 115.141998 -19.826693 
L 116.073629 -21.524507 
L 117.005259 -24.108476 
L 117.93689 -27.251623 
L 118.86852 -30.592437 
L 119.80015 -33.773417 
L 120.731781 -36.469859 
L 121.663411 -38.409815 
L 122.595041 -39.396643 
L 123.526672 -39.344371 
L 124.458302 -38.317529 
L 125.389932 -36.546323 
L 126.321563 -34.388495 
L 127.253193 -32.238024 
L 128.184823 -30.417264 
L 129.116454 -29.103482 
L 130.048084 -28.32077 
L 130.979715 -27.990293 
L 131.911345 -28.003745 
L 132.842975 -28.282719 
L 132.842975 -22.03909 
L 132.842975 -22.03909 
L 131.911345 -23.098176 
L 130.979715 -25.374066 
L 130.048084 -28.562429 
L 129.116454 -32.203578 
L 128.184823 -35.776919 
L 127.253193 -38.818527 
L 126.321563 -41.020124 
L 125.389932 -42.269477 
L 124.458302 -42.620331 
L 123.526672 -42.218524 
L 122.595041 -41.231847 
L 121.663411 -39.818138 
L 120.731781 -38.131137 
L 119.80015 -36.336382 
L 118.86852 -34.610405 
L 117.93689 -33.118501 
L 117.005259 -31.985754 
L 116.073629 -31.277632 
L 115.141998 -30.9959 
L 114.210368 -31.087356 
L 113.278738 -31.462521 
L 112.347107 -32.022328 
L 111.415477 -32.686541 
L 110.483847 -33.411085 
L 109.552216 -34.181892 
L 108.620586 -34.984937 
L 107.688956 -35.76996 
L 106.757325 -36.435291 
L 105.825695 -36.851614 
L 104.894065 -36.915911 
L 103.962434 -36.601543 
L 103.030804 -35.969139 
L 102.099174 -35.13013 
L 101.167543 -34.189822 
L 100.235913 -33.210606 
L 99.304282 -32.21812 
L 98.372652 -31.240637 
L 97.441022 -30.350834 
L 96.509391 -29.681288 
L 95.577761 -29.403001 
L 94.646131 -29.675372 
L 93.7145 -30.58764 
L 92.78287 -32.11468 
L 91.85124 -34.104757 
L 90.919609 -36.304364 
L 89.987979 -38.409886 
L 89.056349 -40.125978 
L 88.124718 -41.212488 
L 87.193088 -41.512639 
L 86.261458 -40.965718 
L 85.329827 -39.610145 
L 84.398197 -37.578446 
L 83.466566 -35.080704 
L 82.534936 -32.373238 
L 81.603306 -29.715603 
L 80.671675 -27.327671 
L 79.740045 -25.362593 
L 78.808415 -23.905885 
L 77.876784 -22.9971 
L 76.945154 -22.657601 
L 76.013524 -22.905559 
L 75.081893 -23.749198 
L 74.150263 -25.163712 
L 73.218633 -27.066273 
L 72.287002 -29.303283 
L 71.355372 -31.657573 
L 70.423742 -33.875303 
L 69.492111 -35.705349 
L 68.560481 -36.940065 
L 67.62885 -37.447136 
L 66.69722 -37.187506 
L 65.76559 -36.220083 
L 64.833959 -34.695853 
L 63.902329 -32.842006 
L 62.970699 -30.934879 
L 62.039068 -29.262638 
L 61.107438 -28.083891 
L 60.175808 -27.592116 
L 59.244177 -27.893873 
L 58.312547 -29.002205 
L 57.380917 -30.840039 
L 56.449286 -33.246885 
L 55.517656 -35.987079 
L 54.586026 -38.765628 
L 53.654395 -41.2612 
L 52.722765 -43.178909 
L 51.791134 -44.309739 
L 50.859504 -44.57062 
L 49.927874 -44.002672 
L 48.996243 -42.727124 
L 48.064613 -40.883964 
L 47.132983 -38.588332 
L 46.201352 -35.927101 
L 45.269722 -32.992927 
L 44.338092 -29.931881 
L 43.406461 -26.974491 
L 42.474831 -24.429603 
L 41.543201 -22.63901 
L 40.61157 -21.907434 
z
" style="stroke: #dadcde"/>
    </defs>
    <g clip-path="url(#p2f1e45ec71)">
     <use xlink:href="#mbb3a0db7a2" x="0" y="144" style="fill: #dadcde; stroke: #dadcde"/>
    </g>
   </g>
   <g id="matplotlib.axis_1">
    <g id="xtick_1">
     <g id="line2d_1"/>
     <g id="text_1">
      <!-- $\mathdefault{0}$ -->
      <g transform="translate(38.625951 134.342938) scale(0.07 -0.07)">
       <defs>
        <path id="CMR17-30" d="M 2688 2025 
C 2688 2416 2682 3080 2413 3591 
C 2176 4039 1798 4198 1466 4198 
C 1158 4198 768 4058 525 3597 
C 269 3118 243 2524 243 2025 
C 243 1661 250 1106 448 619 
C 723 -39 1216 -128 1466 -128 
C 1760 -128 2208 -7 2470 600 
C 2662 1042 2688 1559 2688 2025 
z
M 1466 -26 
C 1056 -26 813 325 723 812 
C 653 1188 653 1738 653 2096 
C 653 2588 653 2997 736 3387 
C 858 3929 1216 4096 1466 4096 
C 1728 4096 2067 3923 2189 3400 
C 2272 3036 2278 2607 2278 2096 
C 2278 1680 2278 1169 2202 792 
C 2067 95 1690 -26 1466 -26 
z
" transform="scale(0.015625)"/>
       </defs>
       <use xlink:href="#CMR17-30" transform="scale(0.996264)"/>
      </g>
     </g>
    </g>
    <g id="xtick_2">
     <g id="line2d_2"/>
     <g id="text_2">
      <!-- $\mathdefault{10}$ -->
      <g transform="translate(65.998501 134.342938) scale(0.07 -0.07)">
       <defs>
        <path id="CMR17-31" d="M 1702 4058 
C 1702 4192 1696 4192 1606 4192 
C 1357 3916 979 3827 621 3827 
C 602 3827 570 3827 563 3808 
C 557 3795 557 3782 557 3648 
C 755 3648 1088 3686 1344 3839 
L 1344 461 
C 1344 236 1331 160 781 160 
L 589 160 
L 589 0 
C 896 0 1216 0 1523 0 
C 1830 0 2150 0 2458 0 
L 2458 160 
L 2266 160 
C 1715 160 1702 230 1702 458 
L 1702 4058 
z
" transform="scale(0.015625)"/>
       </defs>
       <use xlink:href="#CMR17-31" transform="scale(0.996264)"/>
       <use xlink:href="#CMR17-30" transform="translate(45.690477 0) scale(0.996264)"/>
      </g>
     </g>
    </g>
    <g id="xtick_3">
     <g id="line2d_3"/>
     <g id="text_3">
      <!-- $\mathdefault{20}$ -->
      <g transform="translate(95.356669 134.342938) scale(0.07 -0.07)">
       <defs>
        <path id="CMR17-32" d="M 2669 989 
L 2554 989 
C 2490 536 2438 459 2413 420 
C 2381 369 1920 369 1830 369 
L 602 369 
C 832 619 1280 1072 1824 1597 
C 2214 1967 2669 2402 2669 3035 
C 2669 3790 2067 4224 1395 4224 
C 691 4224 262 3604 262 3030 
C 262 2780 448 2748 525 2748 
C 589 2748 781 2787 781 3010 
C 781 3207 614 3264 525 3264 
C 486 3264 448 3258 422 3245 
C 544 3790 915 4058 1306 4058 
C 1862 4058 2227 3617 2227 3035 
C 2227 2479 1901 2000 1536 1584 
L 262 146 
L 262 0 
L 2515 0 
L 2669 989 
z
" transform="scale(0.015625)"/>
       </defs>
       <use xlink:href="#CMR17-32" transform="scale(0.996264)"/>
       <use xlink:href="#CMR17-30" transform="translate(45.690477 0) scale(0.996264)"/>
      </g>
     </g>
    </g>
    <g id="xtick_4">
     <g id="line2d_4"/>
     <g id="text_4">
      <!-- $\mathdefault{30}$ -->
      <g transform="translate(124.714837 134.342938) scale(0.07 -0.07)">
       <defs>
        <path id="CMR17-33" d="M 1414 2157 
C 1984 2157 2234 1662 2234 1090 
C 2234 320 1824 25 1453 25 
C 1114 25 563 194 390 693 
C 422 680 454 680 486 680 
C 640 680 755 782 755 948 
C 755 1133 614 1216 486 1216 
C 378 1216 211 1165 211 926 
C 211 335 787 -128 1466 -128 
C 2176 -128 2720 430 2720 1085 
C 2720 1707 2208 2157 1600 2227 
C 2086 2328 2554 2756 2554 3329 
C 2554 3820 2048 4179 1472 4179 
C 890 4179 378 3829 378 3329 
C 378 3110 544 3072 627 3072 
C 762 3072 877 3155 877 3321 
C 877 3486 762 3569 627 3569 
C 602 3569 570 3569 544 3557 
C 730 3959 1235 4032 1459 4032 
C 1683 4032 2106 3925 2106 3320 
C 2106 3143 2080 2828 1862 2550 
C 1670 2304 1453 2304 1242 2284 
C 1210 2284 1062 2269 1037 2269 
C 992 2263 966 2257 966 2208 
C 966 2163 973 2157 1101 2157 
L 1414 2157 
z
" transform="scale(0.015625)"/>
       </defs>
       <use xlink:href="#CMR17-33" transform="scale(0.996264)"/>
       <use xlink:href="#CMR17-30" transform="translate(45.690477 0) scale(0.996264)"/>
      </g>
     </g>
    </g>
   </g>
   <g id="matplotlib.axis_2">
    <g id="ytick_1">
     <g id="line2d_5"/>
     <g id="text_5">
      <!-- $\mathdefault{0}$ -->
      <g transform="translate(28.528762 113.448327) scale(0.07 -0.07)">
       <use xlink:href="#CMR17-30" transform="scale(0.996264)"/>
      </g>
     </g>
    </g>
    <g id="ytick_2">
     <g id="line2d_6"/>
     <g id="text_6">
      <!-- $\mathdefault{2}$ -->
      <g transform="translate(28.528762 97.82385) scale(0.07 -0.07)">
       <use xlink:href="#CMR17-32" transform="scale(0.996264)"/>
      </g>
     </g>
    </g>
    <g id="ytick_3">
     <g id="line2d_7"/>
     <g id="text_7">
      <!-- $\mathdefault{4}$ -->
      <g transform="translate(28.528762 82.199374) scale(0.07 -0.07)">
       <defs>
        <path id="CMR17-34" d="M 2150 4122 
C 2150 4256 2144 4256 2029 4256 
L 128 1254 
L 128 1088 
L 1779 1088 
L 1779 457 
C 1779 224 1766 160 1318 160 
L 1197 160 
L 1197 0 
C 1402 0 1747 0 1965 0 
C 2182 0 2528 0 2733 0 
L 2733 160 
L 2611 160 
C 2163 160 2150 224 2150 457 
L 2150 1088 
L 2803 1088 
L 2803 1254 
L 2150 1254 
L 2150 4122 
z
M 1798 3703 
L 1798 1254 
L 256 1254 
L 1798 3703 
z
" transform="scale(0.015625)"/>
       </defs>
       <use xlink:href="#CMR17-34" transform="scale(0.996264)"/>
      </g>
     </g>
    </g>
    <g id="ytick_4">
     <g id="line2d_8"/>
     <g id="text_8">
      <!-- $\mathdefault{6}$ -->
      <g transform="translate(28.528762 66.574898) scale(0.07 -0.07)">
       <defs>
        <path id="CMR17-36" d="M 678 2176 
C 678 3690 1395 4032 1811 4032 
C 1946 4032 2272 4009 2400 3776 
C 2298 3776 2106 3776 2106 3553 
C 2106 3381 2246 3323 2336 3323 
C 2394 3323 2566 3348 2566 3560 
C 2566 3954 2246 4179 1805 4179 
C 1043 4179 243 3390 243 1984 
C 243 253 966 -128 1478 -128 
C 2099 -128 2688 427 2688 1283 
C 2688 2081 2170 2662 1517 2662 
C 1126 2662 838 2407 678 1960 
L 678 2176 
z
M 1478 25 
C 691 25 691 1200 691 1436 
C 691 1896 909 2560 1504 2560 
C 1613 2560 1926 2560 2138 2120 
C 2253 1870 2253 1609 2253 1289 
C 2253 944 2253 690 2118 434 
C 1978 171 1773 25 1478 25 
z
" transform="scale(0.015625)"/>
       </defs>
       <use xlink:href="#CMR17-36" transform="scale(0.996264)"/>
      </g>
     </g>
    </g>
    <g id="ytick_5">
     <g id="line2d_9"/>
     <g id="text_9">
      <!-- $\mathdefault{8}$ -->
      <g transform="translate(28.528762 50.950422) scale(0.07 -0.07)">
       <defs>
        <path id="CMR17-38" d="M 1741 2264 
C 2144 2467 2554 2773 2554 3263 
C 2554 3841 1990 4179 1472 4179 
C 890 4179 378 3759 378 3180 
C 378 3021 416 2747 666 2505 
C 730 2442 998 2251 1171 2130 
C 883 1983 211 1634 211 934 
C 211 279 838 -128 1459 -128 
C 2144 -128 2720 362 2720 1010 
C 2720 1590 2330 1857 2074 2029 
L 1741 2264 
z
M 902 2822 
C 851 2854 595 3051 595 3351 
C 595 3739 998 4032 1459 4032 
C 1965 4032 2336 3676 2336 3262 
C 2336 2669 1670 2331 1638 2331 
C 1632 2331 1626 2331 1574 2370 
L 902 2822 
z
M 2080 1519 
C 2176 1449 2483 1240 2483 851 
C 2483 381 2010 25 1472 25 
C 890 25 448 438 448 940 
C 448 1443 838 1862 1280 2060 
L 2080 1519 
z
" transform="scale(0.015625)"/>
       </defs>
       <use xlink:href="#CMR17-38" transform="scale(0.996264)"/>
      </g>
     </g>
    </g>
    <g id="ytick_6">
     <g id="line2d_10"/>
     <g id="text_10">
      <!-- $\mathdefault{10}$ -->
      <g transform="translate(24.557525 35.325945) scale(0.07 -0.07)">
       <use xlink:href="#CMR17-31" transform="scale(0.996264)"/>
       <use xlink:href="#CMR17-30" transform="translate(45.690477 0) scale(0.996264)"/>
      </g>
     </g>
    </g>
    <g id="ytick_7">
     <g id="line2d_11"/>
     <g id="text_11">
      <!-- $\mathdefault{12}$ -->
      <g transform="translate(24.557525 19.701469) scale(0.07 -0.07)">
       <use xlink:href="#CMR17-31" transform="scale(0.996264)"/>
       <use xlink:href="#CMR17-32" transform="translate(45.690477 0) scale(0.996264)"/>
      </g>
     </g>
    </g>
   </g>
   <g id="line2d_12">
    <path d="M 40.61157 118.839096 
L 41.543201 118.449039 
L 42.474831 117.317821 
L 43.406461 115.5584 
L 44.338092 113.34647 
L 45.269722 110.902909 
L 46.201352 108.471725 
L 47.132983 106.29569 
L 48.064613 104.5921 
L 48.996243 103.53107 
L 49.927874 103.218553 
L 50.859504 103.685755 
L 51.791134 104.886024 
L 52.722765 106.699502 
L 53.654395 108.945101 
L 54.586026 111.398579 
L 55.517656 113.814938 
L 56.449286 115.952885 
L 57.380917 117.59893 
L 58.312547 118.588703 
L 59.244177 118.823367 
L 60.175808 118.279489 
L 61.107438 117.011379 
L 62.039068 115.145668 
L 62.970699 112.868663 
L 63.902329 110.407738 
L 64.833959 108.008637 
L 65.76559 105.91093 
L 66.69722 104.324087 
L 67.62885 103.406568 
L 68.560481 103.249994 
L 69.492111 103.87 
L 70.423742 105.204674 
L 71.355372 107.120739 
L 72.287002 109.426859 
L 73.218633 111.892752 
L 74.150263 114.272179 
L 75.081893 116.327535 
L 76.013524 117.853577 
L 76.945154 118.697918 
L 77.876784 118.776245 
L 78.808415 118.080735 
L 79.740045 116.68084 
L 80.671675 114.716352 
L 81.603306 112.383438 
L 82.534936 109.91506 
L 83.466566 107.557703 
L 84.398197 105.546769 
L 85.329827 104.083063 
L 86.261458 103.31275 
L 87.193088 103.31275 
L 88.124718 104.083063 
L 89.056349 105.546769 
L 89.987979 107.557703 
L 90.919609 109.91506 
L 91.85124 112.383438 
L 92.78287 114.716352 
L 93.7145 116.68084 
L 94.646131 118.080735 
L 95.577761 118.776245 
L 96.509391 118.697918 
L 97.441022 117.853577 
L 98.372652 116.327535 
L 99.304282 114.272179 
L 100.235913 111.892752 
L 101.167543 109.426859 
L 102.099174 107.120739 
L 103.030804 105.204674 
L 103.962434 103.87 
L 104.894065 103.249994 
L 105.825695 103.406568 
L 106.757325 104.324087 
L 107.688956 105.91093 
L 108.620586 108.008637 
L 109.552216 110.407738 
L 110.483847 112.868663 
L 111.415477 115.145668 
L 112.347107 117.011379 
L 113.278738 118.279489 
L 114.210368 118.823367 
L 115.141998 118.588703 
L 116.073629 117.59893 
L 117.005259 115.952885 
L 117.93689 113.814938 
L 118.86852 111.398579 
L 119.80015 108.945101 
L 120.731781 106.699502 
L 121.663411 104.886024 
L 122.595041 103.685755 
L 123.526672 103.218553 
L 124.458302 103.53107 
L 125.389932 104.5921 
L 126.321563 106.29569 
L 127.253193 108.471725 
L 128.184823 110.902909 
L 129.116454 113.34647 
L 130.048084 115.5584 
L 130.979715 117.317821 
L 131.911345 118.449039 
L 132.842975 118.839096 
" clip-path="url(#p2f1e45ec71)" style="fill: none; stroke: #44525c; stroke-width: 1.5; stroke-linecap: round"/>
   </g>
   <g id="line2d_13">
    <path d="M 115.141998 126 
L 115.141998 17.28 
" clip-path="url(#p2f1e45ec71)" style="fill: none; stroke: #eb7a59; stroke-width: 0.5; stroke-linecap: round"/>
   </g>
   <g id="patch_3">
    <path d="M 36 126 
L 36 17.28 
" style="fill: none; stroke: #000000; stroke-width: 0.7; stroke-linejoin: miter; stroke-linecap: square"/>
   </g>
   <g id="patch_4">
    <path d="M 137.454545 126 
L 137.454545 17.28 
" style="fill: none; stroke: #000000; stroke-width: 0.7; stroke-linejoin: miter; stroke-linecap: square"/>
   </g>
   <g id="patch_5">
    <path d="M 36 126 
L 137.454545 126 
" style="fill: none; stroke: #000000; stroke-width: 0.7; stroke-linejoin: miter; stroke-linecap: square"/>
   </g>
   <g id="patch_6">
    <path d="M 36 17.28 
L 137.454545 17.28 
" style="fill: none; stroke: #000000; stroke-width: 0.7; stroke-linejoin: miter; stroke-linecap: square"/>
   </g>
   <g id="text_12">
    <!-- $x$ -->
    <g transform="translate(112.295039 132.996621) scale(0.1 -0.1)">
     <defs>
      <path id="CMMI12-78" d="M 3034 2606 
C 2829 2567 2752 2414 2752 2293 
C 2752 2139 2874 2088 2963 2088 
C 3155 2088 3290 2254 3290 2427 
C 3290 2695 2982 2816 2714 2816 
C 2323 2816 2106 2433 2048 2312 
C 1901 2816 1504 2816 1389 2816 
C 736 2816 390 1980 390 1839 
C 390 1814 416 1782 461 1782 
C 512 1782 525 1820 538 1846 
C 755 2555 1184 2689 1370 2689 
C 1658 2689 1715 2420 1715 2267 
C 1715 2127 1677 1980 1600 1673 
L 1382 798 
C 1286 415 1101 64 762 64 
C 730 64 570 64 435 147 
C 666 192 717 383 717 460 
C 717 588 621 664 499 664 
C 346 664 179 530 179 326 
C 179 57 480 -64 755 -64 
C 1062 -64 1280 179 1414 441 
C 1517 64 1837 -64 2074 -64 
C 2726 -64 3072 773 3072 913 
C 3072 945 3046 971 3008 971 
C 2950 971 2944 939 2925 888 
C 2752 326 2381 64 2093 64 
C 1869 64 1747 230 1747 492 
C 1747 632 1773 734 1875 1156 
L 2099 2024 
C 2195 2408 2413 2689 2707 2689 
C 2720 2689 2899 2689 3034 2606 
z
" transform="scale(0.015625)"/>
     </defs>
     <use xlink:href="#CMMI12-78" transform="scale(0.996264)"/>
    </g>
   </g>
  </g>
  <g id="axes_2">
   <g id="patch_7">
    <path d="M 157.745455 126 
L 259.2 126 
L 259.2 17.28 
L 157.745455 17.28 
z
" style="fill: #ffffff"/>
   </g>
   <g id="PolyCollection_2">
    <defs>
     <path id="mb2d2d7d6fa" d="M 162.357025 -20.637239 
L 162.357025 -24.065693 
L 163.288655 -24.103496 
L 164.220285 -24.483496 
L 165.151916 -25.344341 
L 166.083546 -26.860865 
L 167.015177 -29.194136 
L 167.946807 -32.327879 
L 168.878437 -35.790092 
L 169.810068 -38.510248 
L 170.741698 -39.2557 
L 171.673328 -37.557458 
L 172.604959 -34.135939 
L 173.536589 -30.27008 
L 174.468219 -26.914231 
L 175.39985 -24.412385 
L 176.33148 -22.709416 
L 177.26311 -21.620533 
L 178.194741 -20.974408 
L 179.126371 -20.655758 
L 180.058002 -20.608017 
L 180.989632 -20.830308 
L 181.921262 -21.381263 
L 182.852893 -22.392712 
L 183.784523 -24.090318 
L 184.716153 -26.807285 
L 185.647784 -30.954933 
L 186.579414 -36.884975 
L 187.511044 -44.583476 
L 188.442675 -53.258298 
L 189.374305 -61.136083 
L 190.305935 -65.911298 
L 191.237566 -65.878827 
L 192.169196 -61.001678 
L 193.100826 -52.97345 
L 194.032457 -44.194823 
L 194.964087 -36.552766 
L 195.895718 -30.871317 
L 196.827348 -27.114589 
L 197.758978 -24.870149 
L 198.690609 -23.713129 
L 199.622239 -23.361572 
L 200.553869 -23.70296 
L 201.4855 -24.772739 
L 202.41713 -26.708444 
L 203.34876 -29.65661 
L 204.280391 -33.605302 
L 205.212021 -38.177073 
L 206.143651 -42.523746 
L 207.075282 -45.503046 
L 208.006912 -46.162308 
L 208.938542 -44.258147 
L 209.870173 -40.402891 
L 210.801803 -35.699684 
L 211.733434 -31.176006 
L 212.665064 -27.434844 
L 213.596694 -24.646184 
L 214.528325 -22.71871 
L 215.459955 -21.469731 
L 216.391585 -20.724994 
L 217.323216 -20.361447 
L 218.254846 -20.324965 
L 219.186476 -20.648938 
L 220.118107 -21.493625 
L 221.049737 -23.21744 
L 221.981367 -26.44959 
L 222.912998 -32.014098 
L 223.844628 -40.422995 
L 224.776258 -50.891662 
L 225.707889 -60.689662 
L 226.639519 -66.059667 
L 227.57115 -64.552898 
L 228.50278 -56.822023 
L 229.43441 -46.160138 
L 230.366041 -36.198927 
L 231.297671 -28.913116 
L 232.229301 -24.414842 
L 233.160932 -21.929161 
L 234.092562 -20.653316 
L 235.024192 -20.060237 
L 235.955823 -19.880629 
L 236.887453 -20.020588 
L 237.819083 -20.511088 
L 238.750714 -21.495496 
L 239.682344 -23.226865 
L 240.613974 -26.016086 
L 241.545605 -30.044754 
L 242.477235 -35.009727 
L 243.408866 -39.804318 
L 244.340496 -42.740123 
L 245.272126 -42.575137 
L 246.203757 -39.548262 
L 247.135387 -35.177031 
L 248.067017 -31.031401 
L 248.998648 -27.895621 
L 249.930278 -25.838341 
L 250.861908 -24.625047 
L 251.793539 -23.993449 
L 252.725169 -23.745199 
L 253.656799 -23.7551 
L 254.58843 -23.964327 
L 254.58843 -20.68206 
L 254.58843 -20.68206 
L 253.656799 -21.071459 
L 252.725169 -22.110219 
L 251.793539 -24.181744 
L 250.861908 -27.852085 
L 249.930278 -33.565954 
L 248.998648 -40.97542 
L 248.067017 -48.454654 
L 247.135387 -53.736102 
L 246.203757 -55.377621 
L 245.272126 -53.503781 
L 244.340496 -49.291304 
L 243.408866 -44.111596 
L 242.477235 -39.040226 
L 241.545605 -34.721574 
L 240.613974 -31.406871 
L 239.682344 -29.076184 
L 238.750714 -27.58118 
L 237.819083 -26.750914 
L 236.887453 -26.440953 
L 235.955823 -26.54035 
L 235.024192 -26.960487 
L 234.092562 -27.626141 
L 233.160932 -28.480375 
L 232.229301 -29.498875 
L 231.297671 -30.691289 
L 230.366041 -32.065275 
L 229.43441 -33.552095 
L 228.50278 -34.934628 
L 227.57115 -35.861574 
L 226.639519 -36.009185 
L 225.707889 -35.298875 
L 224.776258 -33.953704 
L 223.844628 -32.329128 
L 222.912998 -30.704178 
L 221.981367 -29.207543 
L 221.049737 -27.870441 
L 220.118107 -26.709571 
L 219.186476 -25.771972 
L 218.254846 -25.133622 
L 217.323216 -24.883982 
L 216.391585 -25.128222 
L 215.459955 -26.011165 
L 214.528325 -27.740611 
L 213.596694 -30.566596 
L 212.665064 -34.653183 
L 211.733434 -39.804516 
L 210.801803 -45.16106 
L 209.870173 -49.21386 
L 208.938542 -50.436451 
L 208.006912 -48.243299 
L 207.075282 -43.425573 
L 206.143651 -37.60313 
L 205.212021 -32.238757 
L 204.280391 -28.068385 
L 203.34876 -25.165026 
L 202.41713 -23.277994 
L 201.4855 -22.104187 
L 200.553869 -21.406015 
L 199.622239 -21.031976 
L 198.690609 -20.903036 
L 197.758978 -20.996655 
L 196.827348 -21.338382 
L 195.895718 -22.001023 
L 194.964087 -23.104314 
L 194.032457 -24.796671 
L 193.100826 -27.187025 
L 192.169196 -30.202869 
L 191.237566 -33.424002 
L 190.305935 -36.064955 
L 189.374305 -37.276391 
L 188.442675 -36.646291 
L 187.511044 -34.474488 
L 186.579414 -31.554316 
L 185.647784 -28.691025 
L 184.716153 -26.375278 
L 183.784523 -24.761401 
L 182.852893 -23.814446 
L 181.921262 -23.459713 
L 180.989632 -23.674727 
L 180.058002 -24.539715 
L 179.126371 -26.274216 
L 178.194741 -29.25971 
L 177.26311 -33.990384 
L 176.33148 -40.820372 
L 175.39985 -49.409099 
L 174.468219 -58.147996 
L 173.536589 -64.401126 
L 172.604959 -65.976801 
L 171.673328 -62.612663 
L 170.741698 -55.892083 
L 169.810068 -47.928459 
L 168.878437 -40.308305 
L 167.946807 -33.868088 
L 167.015177 -28.899569 
L 166.083546 -25.366158 
L 165.151916 -23.044697 
L 164.220285 -21.642175 
L 163.288655 -20.896136 
L 162.357025 -20.637239 
z
" style="stroke: #f0e1f0"/>
    </defs>
    <g clip-path="url(#p1bee121d2e)">
     <use xlink:href="#mb2d2d7d6fa" x="0" y="144" style="fill: #f0e1f0; stroke: #f0e1f0"/>
    </g>
   </g>
   <g id="matplotlib.axis_3">
    <g id="xtick_5">
     <g id="line2d_14"/>
     <g id="text_13">
      <!-- $\mathdefault{0}$ -->
      <g transform="translate(160.371406 134.342938) scale(0.07 -0.07)">
       <use xlink:href="#CMR17-30" transform="scale(0.996264)"/>
      </g>
     </g>
    </g>
    <g id="xtick_6">
     <g id="line2d_15"/>
     <g id="text_14">
      <!-- $\mathdefault{10}$ -->
      <g transform="translate(187.743955 134.342938) scale(0.07 -0.07)">
       <use xlink:href="#CMR17-31" transform="scale(0.996264)"/>
       <use xlink:href="#CMR17-30" transform="translate(45.690477 0) scale(0.996264)"/>
      </g>
     </g>
    </g>
    <g id="xtick_7">
     <g id="line2d_16"/>
     <g id="text_15">
      <!-- $\mathdefault{20}$ -->
      <g transform="translate(217.102123 134.342938) scale(0.07 -0.07)">
       <use xlink:href="#CMR17-32" transform="scale(0.996264)"/>
       <use xlink:href="#CMR17-30" transform="translate(45.690477 0) scale(0.996264)"/>
      </g>
     </g>
    </g>
    <g id="xtick_8">
     <g id="line2d_17"/>
     <g id="text_16">
      <!-- $\mathdefault{30}$ -->
      <g transform="translate(246.460291 134.342938) scale(0.07 -0.07)">
       <use xlink:href="#CMR17-33" transform="scale(0.996264)"/>
       <use xlink:href="#CMR17-30" transform="translate(45.690477 0) scale(0.996264)"/>
      </g>
     </g>
    </g>
   </g>
   <g id="matplotlib.axis_4">
    <g id="ytick_8">
     <g id="line2d_18"/>
     <g id="text_17">
      <!-- $\mathdefault{0}$ -->
      <g transform="translate(150.274217 128.421469) scale(0.07 -0.07)">
       <use xlink:href="#CMR17-30" transform="scale(0.996264)"/>
      </g>
     </g>
    </g>
    <g id="ytick_9">
     <g id="line2d_19"/>
     <g id="text_18">
      <!-- $\mathdefault{2}$ -->
      <g transform="translate(150.274217 106.677469) scale(0.07 -0.07)">
       <use xlink:href="#CMR17-32" transform="scale(0.996264)"/>
      </g>
     </g>
    </g>
    <g id="ytick_10">
     <g id="line2d_20"/>
     <g id="text_19">
      <!-- $\mathdefault{4}$ -->
      <g transform="translate(150.274217 84.933469) scale(0.07 -0.07)">
       <use xlink:href="#CMR17-34" transform="scale(0.996264)"/>
      </g>
     </g>
    </g>
    <g id="ytick_11">
     <g id="line2d_21"/>
     <g id="text_20">
      <!-- $\mathdefault{6}$ -->
      <g transform="translate(150.274217 63.189469) scale(0.07 -0.07)">
       <use xlink:href="#CMR17-36" transform="scale(0.996264)"/>
      </g>
     </g>
    </g>
    <g id="ytick_12">
     <g id="line2d_22"/>
     <g id="text_21">
      <!-- $\mathdefault{8}$ -->
      <g transform="translate(150.274217 41.445469) scale(0.07 -0.07)">
       <use xlink:href="#CMR17-38" transform="scale(0.996264)"/>
      </g>
     </g>
    </g>
    <g id="ytick_13">
     <g id="line2d_23"/>
     <g id="text_22">
      <!-- $\mathdefault{10}$ -->
      <g transform="translate(146.302979 19.701469) scale(0.07 -0.07)">
       <use xlink:href="#CMR17-31" transform="scale(0.996264)"/>
       <use xlink:href="#CMR17-30" transform="translate(45.690477 0) scale(0.996264)"/>
      </g>
     </g>
    </g>
   </g>
   <g id="line2d_24">
    <path d="M 162.357025 122.000415 
L 163.288655 121.795651 
L 164.220285 121.140574 
L 165.151916 119.913131 
L 166.083546 117.920982 
L 167.015177 114.95413 
L 167.946807 110.92167 
L 168.878437 106.078484 
L 169.810068 101.224203 
L 170.741698 97.620029 
L 171.673328 96.461715 
L 172.604959 98.176436 
L 173.536589 102.139037 
L 174.468219 107.082059 
L 175.39985 111.808198 
L 176.33148 115.633196 
L 177.26311 118.391208 
L 178.194741 120.212861 
L 179.126371 121.312323 
L 180.058002 121.870146 
L 180.989632 121.992354 
L 181.921262 121.703405 
L 182.852893 120.946171 
L 183.784523 119.582907 
L 184.716153 117.411434 
L 185.647784 114.231333 
L 186.579414 110.000847 
L 187.511044 105.072765 
L 188.442675 100.359475 
L 189.374305 97.164119 
L 190.305935 96.580356 
L 191.237566 98.824954 
L 192.169196 103.092712 
L 193.100826 108.075102 
L 194.032457 112.656927 
L 194.964087 116.268652 
L 195.895718 118.823759 
L 196.827348 120.483844 
L 197.758978 121.462658 
L 198.690609 121.92748 
L 199.622239 121.968108 
L 200.553869 121.592692 
L 201.4855 120.727753 
L 202.41713 119.22039 
L 203.34876 116.861077 
L 204.280391 113.465241 
L 205.212021 109.050179 
L 206.143651 104.074166 
L 207.075282 99.556084 
L 208.006912 96.815739 
L 208.938542 96.815739 
L 209.870173 99.556084 
L 210.801803 104.074166 
L 211.733434 109.050179 
L 212.665064 113.465241 
L 213.596694 116.861077 
L 214.528325 119.22039 
L 215.459955 120.727753 
L 216.391585 121.592692 
L 217.323216 121.968108 
L 218.254846 121.92748 
L 219.186476 121.462658 
L 220.118107 120.483844 
L 221.049737 118.823759 
L 221.981367 116.268652 
L 222.912998 112.656927 
L 223.844628 108.075102 
L 224.776258 103.092712 
L 225.707889 98.824954 
L 226.639519 96.580356 
L 227.57115 97.164119 
L 228.50278 100.359475 
L 229.43441 105.072765 
L 230.366041 110.000847 
L 231.297671 114.231333 
L 232.229301 117.411434 
L 233.160932 119.582907 
L 234.092562 120.946171 
L 235.024192 121.703405 
L 235.955823 121.992354 
L 236.887453 121.870146 
L 237.819083 121.312323 
L 238.750714 120.212861 
L 239.682344 118.391208 
L 240.613974 115.633196 
L 241.545605 111.808198 
L 242.477235 107.082059 
L 243.408866 102.139037 
L 244.340496 98.176436 
L 245.272126 96.461715 
L 246.203757 97.620029 
L 247.135387 101.224203 
L 248.067017 106.078484 
L 248.998648 110.92167 
L 249.930278 114.95413 
L 250.861908 117.920982 
L 251.793539 119.913131 
L 252.725169 121.140574 
L 253.656799 121.795651 
L 254.58843 122.000415 
" clip-path="url(#p1bee121d2e)" style="fill: none; stroke: #b56ab6; stroke-width: 1.5; stroke-linecap: round"/>
   </g>
   <g id="line2d_25">
    <path d="M 236.887453 126 
L 236.887453 17.28 
" clip-path="url(#p1bee121d2e)" style="fill: none; stroke: #eb7a59; stroke-width: 0.5; stroke-linecap: round"/>
   </g>
   <g id="patch_8">
    <path d="M 157.745455 126 
L 157.745455 17.28 
" style="fill: none; stroke: #000000; stroke-width: 0.7; stroke-linejoin: miter; stroke-linecap: square"/>
   </g>
   <g id="patch_9">
    <path d="M 259.2 126 
L 259.2 17.28 
" style="fill: none; stroke: #000000; stroke-width: 0.7; stroke-linejoin: miter; stroke-linecap: square"/>
   </g>
   <g id="patch_10">
    <path d="M 157.745455 126 
L 259.2 126 
" style="fill: none; stroke: #000000; stroke-width: 0.7; stroke-linejoin: miter; stroke-linecap: square"/>
   </g>
   <g id="patch_11">
    <path d="M 157.745455 17.28 
L 259.2 17.28 
" style="fill: none; stroke: #000000; stroke-width: 0.7; stroke-linejoin: miter; stroke-linecap: square"/>
   </g>
   <g id="text_23">
    <!-- $x$ -->
    <g transform="translate(234.040494 133.455542) scale(0.1 -0.1)">
     <use xlink:href="#CMMI12-78" transform="scale(0.996264)"/>
    </g>
   </g>
  </g>
 </g>
 <defs>
  <clipPath id="p2f1e45ec71">
   <rect x="36" y="17.28" width="101.454545" height="108.72"/>
  </clipPath>
  <clipPath id="p1bee121d2e">
   <rect x="157.745455" y="17.28" width="101.454545" height="108.72"/>
  </clipPath>
 </defs>
</svg>
