<?xml version="1.0" encoding="utf-8" standalone="no"?>
<!DOCTYPE svg PUBLIC "-//W3C//DTD SVG 1.1//EN"
  "http://www.w3.org/Graphics/SVG/1.1/DTD/svg11.dtd">
<svg xmlns:xlink="http://www.w3.org/1999/xlink" width="288pt" height="144pt" viewBox="0 0 288 144" xmlns="http://www.w3.org/2000/svg" version="1.1">
 <metadata>
  <rdf:RDF xmlns:dc="http://purl.org/dc/elements/1.1/" xmlns:cc="http://creativecommons.org/ns#" xmlns:rdf="http://www.w3.org/1999/02/22-rdf-syntax-ns#">
   <cc:Work>
    <dc:type rdf:resource="http://purl.org/dc/dcmitype/StillImage"/>
    <dc:date>2023-07-11T17:34:14.378352</dc:date>
    <dc:format>image/svg+xml</dc:format>
    <dc:creator>
     <cc:Agent>
      <dc:title>Matplotlib v3.7.1, https://matplotlib.org/</dc:title>
     </cc:Agent>
    </dc:creator>
   </cc:Work>
  </rdf:RDF>
 </metadata>
 <defs>
  <style type="text/css">*{stroke-linejoin: round; stroke-linecap: butt}</style>
 </defs>
 <g id="figure_1">
  <g id="patch_1">
   <path d="M 0 144 
L 288 144 
L 288 0 
L 0 0 
L 0 144 
z
" style="fill: none"/>
  </g>
  <g id="axes_1">
   <g id="patch_2">
    <path d="M 36 126 
L 137.454545 126 
L 137.454545 17.28 
L 36 17.28 
z
" style="fill: #ffffff"/>
   </g>
   <g id="PolyCollection_1">
    <defs>
     <path id="m84d304e679" d="M 40.61157 -24.916206 
L 40.61157 -31.013214 
L 41.543201 -32.37627 
L 42.474831 -34.526814 
L 43.406461 -37.153707 
L 44.338092 -39.858527 
L 45.269722 -42.26241 
L 46.201352 -44.097983 
L 47.132983 -45.247567 
L 48.064613 -45.719199 
L 48.996243 -45.585425 
L 49.927874 -44.924035 
L 50.859504 -43.788596 
L 51.791134 -42.213138 
L 52.722765 -40.23808 
L 53.654395 -37.940947 
L 54.586026 -35.460177 
L 55.517656 -33.004365 
L 56.449286 -30.839859 
L 57.380917 -29.25077 
L 58.312547 -28.47383 
L 59.244177 -28.627029 
L 60.175808 -29.665663 
L 61.107438 -31.395384 
L 62.039068 -33.542501 
L 62.970699 -35.844345 
L 63.902329 -38.108251 
L 64.833959 -40.211336 
L 65.76559 -42.055435 
L 66.69722 -43.517673 
L 67.62885 -44.431111 
L 68.560481 -44.605326 
L 69.492111 -43.876099 
L 70.423742 -42.164395 
L 71.355372 -39.522624 
L 72.287002 -36.1483 
L 73.218633 -32.356444 
L 74.150263 -28.521699 
L 75.081893 -25.016217 
L 76.013524 -22.166135 
L 76.945154 -20.230386 
L 77.876784 -19.388337 
L 78.808415 -19.722101 
L 79.740045 -21.193462 
L 80.671675 -23.629946 
L 81.603306 -26.737254 
L 82.534936 -30.144384 
L 83.466566 -33.470574 
L 84.398197 -36.390688 
L 85.329827 -38.675496 
L 86.261458 -40.196323 
L 87.193088 -40.902305 
L 88.124718 -40.791995 
L 89.056349 -39.900435 
L 89.987979 -38.308313 
L 90.919609 -36.161558 
L 91.85124 -33.681735 
L 92.78287 -31.15477 
L 93.7145 -28.898791 
L 94.646131 -27.218328 
L 95.577761 -26.350898 
L 96.509391 -26.413677 
L 97.441022 -27.36711 
L 98.372652 -29.017515 
L 99.304282 -31.067994 
L 100.235913 -33.200518 
L 101.167543 -35.153346 
L 102.099174 -36.762546 
L 103.030804 -37.958817 
L 103.962434 -38.732806 
L 104.894065 -39.091786 
L 105.825695 -39.028304 
L 106.757325 -38.51313 
L 107.688956 -37.51508 
L 108.620586 -36.040879 
L 109.552216 -34.17945 
L 110.483847 -32.128157 
L 111.415477 -30.17897 
L 112.347107 -28.657487 
L 113.278738 -27.835264 
L 114.210368 -27.85722 
L 115.141998 -28.719954 
L 116.073629 -30.303727 
L 117.005259 -32.427696 
L 117.93689 -34.892139 
L 118.86852 -37.493115 
L 119.80015 -40.019966 
L 120.731781 -42.253669 
L 121.663411 -43.97646 
L 122.595041 -44.99465 
L 123.526672 -45.172884 
L 124.458302 -44.472865 
L 125.389932 -42.979736 
L 126.321563 -40.895431 
L 127.253193 -38.492358 
L 128.184823 -36.047801 
L 129.116454 -33.796036 
L 130.048084 -31.922703 
L 130.979715 -30.591823 
L 131.911345 -29.968958 
L 132.842975 -30.207229 
L 132.842975 -25.722192 
L 132.842975 -25.722192 
L 131.911345 -26.719038 
L 130.979715 -28.29615 
L 130.048084 -30.386963 
L 129.116454 -32.815358 
L 128.184823 -35.315794 
L 127.253193 -37.599367 
L 126.321563 -39.428213 
L 125.389932 -40.657025 
L 124.458302 -41.22737 
L 123.526672 -41.13513 
L 122.595041 -40.404756 
L 121.663411 -39.088682 
L 120.731781 -37.284648 
L 119.80015 -35.151145 
L 118.86852 -32.906509 
L 117.93689 -30.808187 
L 117.005259 -29.114782 
L 116.073629 -28.037548 
L 115.141998 -27.696425 
L 114.210368 -28.102789 
L 113.278738 -29.182471 
L 112.347107 -30.826448 
L 111.415477 -32.933371 
L 110.483847 -35.41247 
L 109.552216 -38.147146 
L 108.620586 -40.951451 
L 107.688956 -43.55684 
L 106.757325 -45.644858 
L 105.825695 -46.914061 
L 104.894065 -47.155081 
L 103.962434 -46.308282 
L 103.030804 -44.486618 
L 102.099174 -41.956557 
L 101.167543 -39.080848 
L 100.235913 -36.238045 
L 99.304282 -33.743097 
L 98.372652 -31.796351 
L 97.441022 -30.478932 
L 96.509391 -29.790303 
L 95.577761 -29.700754 
L 94.646131 -30.185941 
L 93.7145 -31.227972 
L 92.78287 -32.7925 
L 91.85124 -34.802549 
L 90.919609 -37.12319 
L 89.987979 -39.560987 
L 89.056349 -41.8797 
L 88.124718 -43.834731 
L 87.193088 -45.222515 
L 86.261458 -45.928498 
L 85.329827 -45.95123 
L 84.398197 -45.389447 
L 83.466566 -44.398726 
L 82.534936 -43.140365 
L 81.603306 -41.74703 
L 80.671675 -40.317324 
L 79.740045 -38.9333 
L 78.808415 -37.682168 
L 77.876784 -36.663315 
L 76.945154 -35.973594 
L 76.013524 -35.679907 
L 75.081893 -35.797649 
L 74.150263 -36.289392 
L 73.218633 -37.08212 
L 72.287002 -38.085894 
L 71.355372 -39.196479 
L 70.423742 -40.28104 
L 69.492111 -41.16499 
L 68.560481 -41.641542 
L 67.62885 -41.511254 
L 66.69722 -40.640315 
L 65.76559 -39.016486 
L 64.833959 -36.780994 
L 63.902329 -34.218345 
L 62.970699 -31.696283 
L 62.039068 -29.56984 
L 61.107438 -28.088552 
L 60.175808 -27.352072 
L 59.244177 -27.33298 
L 58.312547 -27.94255 
L 57.380917 -29.090505 
L 56.449286 -30.70262 
L 55.517656 -32.695961 
L 54.586026 -34.939447 
L 53.654395 -37.230163 
L 52.722765 -39.300237 
L 51.791134 -40.852004 
L 50.859504 -41.61081 
L 49.927874 -41.383979 
L 48.996243 -40.11481 
L 48.064613 -37.917561 
L 47.132983 -35.076076 
L 46.201352 -31.993742 
L 45.269722 -29.101185 
L 44.338092 -26.752867 
L 43.406461 -25.15596 
L 42.474831 -24.361159 
L 41.543201 -24.311726 
L 40.61157 -24.916206 
z
" style="stroke: #dadcde"/>
    </defs>
    <g clip-path="url(#pd3ffd9a7a0)">
     <use xlink:href="#m84d304e679" x="0" y="144" style="fill: #dadcde; stroke: #dadcde"/>
    </g>
   </g>
   <g id="matplotlib.axis_1">
    <g id="xtick_1">
     <g id="line2d_1"/>
     <g id="text_1">
      <!-- $\mathdefault{0}$ -->
      <g transform="translate(38.625951 134.342938) scale(0.07 -0.07)">
       <defs>
        <path id="CMR17-30" d="M 2688 2025 
C 2688 2416 2682 3080 2413 3591 
C 2176 4039 1798 4198 1466 4198 
C 1158 4198 768 4058 525 3597 
C 269 3118 243 2524 243 2025 
C 243 1661 250 1106 448 619 
C 723 -39 1216 -128 1466 -128 
C 1760 -128 2208 -7 2470 600 
C 2662 1042 2688 1559 2688 2025 
z
M 1466 -26 
C 1056 -26 813 325 723 812 
C 653 1188 653 1738 653 2096 
C 653 2588 653 2997 736 3387 
C 858 3929 1216 4096 1466 4096 
C 1728 4096 2067 3923 2189 3400 
C 2272 3036 2278 2607 2278 2096 
C 2278 1680 2278 1169 2202 792 
C 2067 95 1690 -26 1466 -26 
z
" transform="scale(0.015625)"/>
       </defs>
       <use xlink:href="#CMR17-30" transform="scale(0.996264)"/>
      </g>
     </g>
    </g>
    <g id="xtick_2">
     <g id="line2d_2"/>
     <g id="text_2">
      <!-- $\mathdefault{10}$ -->
      <g transform="translate(65.998501 134.342938) scale(0.07 -0.07)">
       <defs>
        <path id="CMR17-31" d="M 1702 4058 
C 1702 4192 1696 4192 1606 4192 
C 1357 3916 979 3827 621 3827 
C 602 3827 570 3827 563 3808 
C 557 3795 557 3782 557 3648 
C 755 3648 1088 3686 1344 3839 
L 1344 461 
C 1344 236 1331 160 781 160 
L 589 160 
L 589 0 
C 896 0 1216 0 1523 0 
C 1830 0 2150 0 2458 0 
L 2458 160 
L 2266 160 
C 1715 160 1702 230 1702 458 
L 1702 4058 
z
" transform="scale(0.015625)"/>
       </defs>
       <use xlink:href="#CMR17-31" transform="scale(0.996264)"/>
       <use xlink:href="#CMR17-30" transform="translate(45.690477 0) scale(0.996264)"/>
      </g>
     </g>
    </g>
    <g id="xtick_3">
     <g id="line2d_3"/>
     <g id="text_3">
      <!-- $\mathdefault{20}$ -->
      <g transform="translate(95.356669 134.342938) scale(0.07 -0.07)">
       <defs>
        <path id="CMR17-32" d="M 2669 989 
L 2554 989 
C 2490 536 2438 459 2413 420 
C 2381 369 1920 369 1830 369 
L 602 369 
C 832 619 1280 1072 1824 1597 
C 2214 1967 2669 2402 2669 3035 
C 2669 3790 2067 4224 1395 4224 
C 691 4224 262 3604 262 3030 
C 262 2780 448 2748 525 2748 
C 589 2748 781 2787 781 3010 
C 781 3207 614 3264 525 3264 
C 486 3264 448 3258 422 3245 
C 544 3790 915 4058 1306 4058 
C 1862 4058 2227 3617 2227 3035 
C 2227 2479 1901 2000 1536 1584 
L 262 146 
L 262 0 
L 2515 0 
L 2669 989 
z
" transform="scale(0.015625)"/>
       </defs>
       <use xlink:href="#CMR17-32" transform="scale(0.996264)"/>
       <use xlink:href="#CMR17-30" transform="translate(45.690477 0) scale(0.996264)"/>
      </g>
     </g>
    </g>
    <g id="xtick_4">
     <g id="line2d_4"/>
     <g id="text_4">
      <!-- $\mathdefault{30}$ -->
      <g transform="translate(124.714837 134.342938) scale(0.07 -0.07)">
       <defs>
        <path id="CMR17-33" d="M 1414 2157 
C 1984 2157 2234 1662 2234 1090 
C 2234 320 1824 25 1453 25 
C 1114 25 563 194 390 693 
C 422 680 454 680 486 680 
C 640 680 755 782 755 948 
C 755 1133 614 1216 486 1216 
C 378 1216 211 1165 211 926 
C 211 335 787 -128 1466 -128 
C 2176 -128 2720 430 2720 1085 
C 2720 1707 2208 2157 1600 2227 
C 2086 2328 2554 2756 2554 3329 
C 2554 3820 2048 4179 1472 4179 
C 890 4179 378 3829 378 3329 
C 378 3110 544 3072 627 3072 
C 762 3072 877 3155 877 3321 
C 877 3486 762 3569 627 3569 
C 602 3569 570 3569 544 3557 
C 730 3959 1235 4032 1459 4032 
C 1683 4032 2106 3925 2106 3320 
C 2106 3143 2080 2828 1862 2550 
C 1670 2304 1453 2304 1242 2284 
C 1210 2284 1062 2269 1037 2269 
C 992 2263 966 2257 966 2208 
C 966 2163 973 2157 1101 2157 
L 1414 2157 
z
" transform="scale(0.015625)"/>
       </defs>
       <use xlink:href="#CMR17-33" transform="scale(0.996264)"/>
       <use xlink:href="#CMR17-30" transform="translate(45.690477 0) scale(0.996264)"/>
      </g>
     </g>
    </g>
   </g>
   <g id="matplotlib.axis_2">
    <g id="ytick_1">
     <g id="line2d_5"/>
     <g id="text_5">
      <!-- $\mathdefault{0.0}$ -->
      <g transform="translate(22.191398 110.860198) scale(0.07 -0.07)">
       <defs>
        <path id="CMMI12-3a" d="M 1178 307 
C 1178 492 1024 619 870 619 
C 685 619 557 466 557 313 
C 557 128 710 0 864 0 
C 1050 0 1178 153 1178 307 
z
" transform="scale(0.015625)"/>
       </defs>
       <use xlink:href="#CMR17-30" transform="scale(0.996264)"/>
       <use xlink:href="#CMMI12-3a" transform="translate(45.690477 0) scale(0.996264)"/>
       <use xlink:href="#CMR17-30" transform="translate(72.787654 0) scale(0.996264)"/>
      </g>
     </g>
    </g>
    <g id="ytick_2">
     <g id="line2d_6"/>
     <g id="text_6">
      <!-- $\mathdefault{2.5}$ -->
      <g transform="translate(22.191398 91.868796) scale(0.07 -0.07)">
       <defs>
        <path id="CMR17-35" d="M 730 3692 
C 794 3666 1056 3584 1325 3584 
C 1920 3584 2246 3911 2432 4100 
C 2432 4157 2432 4192 2394 4192 
C 2387 4192 2374 4192 2323 4163 
C 2099 4058 1837 3973 1517 3973 
C 1325 3973 1037 3999 723 4139 
C 653 4171 640 4171 634 4171 
C 602 4171 595 4164 595 4037 
L 595 2203 
C 595 2089 595 2057 659 2057 
C 691 2057 704 2070 736 2114 
C 941 2401 1222 2522 1542 2522 
C 1766 2522 2246 2382 2246 1289 
C 2246 1085 2246 715 2054 421 
C 1894 159 1645 25 1370 25 
C 947 25 518 320 403 814 
C 429 807 480 795 506 795 
C 589 795 749 840 749 1038 
C 749 1210 627 1280 506 1280 
C 358 1280 262 1190 262 1011 
C 262 454 704 -128 1382 -128 
C 2042 -128 2669 440 2669 1264 
C 2669 2030 2170 2624 1549 2624 
C 1222 2624 947 2503 730 2274 
L 730 3692 
z
" transform="scale(0.015625)"/>
       </defs>
       <use xlink:href="#CMR17-32" transform="scale(0.996264)"/>
       <use xlink:href="#CMMI12-3a" transform="translate(45.690477 0) scale(0.996264)"/>
       <use xlink:href="#CMR17-35" transform="translate(72.787654 0) scale(0.996264)"/>
      </g>
     </g>
    </g>
    <g id="ytick_3">
     <g id="line2d_7"/>
     <g id="text_7">
      <!-- $\mathdefault{5.0}$ -->
      <g transform="translate(22.191398 72.877394) scale(0.07 -0.07)">
       <use xlink:href="#CMR17-35" transform="scale(0.996264)"/>
       <use xlink:href="#CMMI12-3a" transform="translate(45.690477 0) scale(0.996264)"/>
       <use xlink:href="#CMR17-30" transform="translate(72.787654 0) scale(0.996264)"/>
      </g>
     </g>
    </g>
    <g id="ytick_4">
     <g id="line2d_8"/>
     <g id="text_8">
      <!-- $\mathdefault{7.5}$ -->
      <g transform="translate(22.191398 53.885993) scale(0.07 -0.07)">
       <defs>
        <path id="CMR17-37" d="M 2886 3941 
L 2886 4081 
L 1382 4081 
C 634 4081 621 4165 595 4288 
L 480 4288 
L 294 3094 
L 410 3094 
C 429 3215 474 3540 550 3661 
C 589 3712 1062 3712 1171 3712 
L 2579 3712 
L 1869 2661 
C 1395 1954 1069 999 1069 165 
C 1069 89 1069 -128 1299 -128 
C 1530 -128 1530 89 1530 171 
L 1530 465 
C 1530 1508 1709 2196 2003 2636 
L 2886 3941 
z
" transform="scale(0.015625)"/>
       </defs>
       <use xlink:href="#CMR17-37" transform="scale(0.996264)"/>
       <use xlink:href="#CMMI12-3a" transform="translate(45.690477 0) scale(0.996264)"/>
       <use xlink:href="#CMR17-35" transform="translate(72.787654 0) scale(0.996264)"/>
      </g>
     </g>
    </g>
    <g id="ytick_5">
     <g id="line2d_9"/>
     <g id="text_9">
      <!-- $\mathdefault{10.0}$ -->
      <g transform="translate(18.22016 34.894591) scale(0.07 -0.07)">
       <use xlink:href="#CMR17-31" transform="scale(0.996264)"/>
       <use xlink:href="#CMR17-30" transform="translate(45.690477 0) scale(0.996264)"/>
       <use xlink:href="#CMMI12-3a" transform="translate(91.380954 0) scale(0.996264)"/>
       <use xlink:href="#CMR17-30" transform="translate(118.478131 0) scale(0.996264)"/>
      </g>
     </g>
    </g>
   </g>
   <g id="line2d_10">
    <path d="M 40.61157 116.03529 
L 41.543201 115.656002 
L 42.474831 114.556014 
L 43.406461 112.845167 
L 44.338092 110.694303 
L 45.269722 108.318202 
L 46.201352 105.954137 
L 47.132983 103.838178 
L 48.064613 102.18162 
L 48.996243 101.149882 
L 49.927874 100.845993 
L 50.859504 101.300297 
L 51.791134 102.467429 
L 52.722765 104.230842 
L 53.654395 106.414445 
L 54.586026 108.800188 
L 55.517656 111.149837 
L 56.449286 113.228761 
L 57.380917 114.829363 
L 58.312547 115.79181 
L 59.244177 116.019996 
L 60.175808 115.491133 
L 61.107438 114.258032 
L 62.039068 112.443829 
L 62.970699 110.229686 
L 63.902329 107.836702 
L 64.833959 105.503835 
L 65.76559 103.46404 
L 66.69722 101.921006 
L 67.62885 101.028817 
L 68.560481 100.876566 
L 69.492111 101.479456 
L 70.423742 102.777282 
L 71.355372 104.640449 
L 72.287002 106.882903 
L 73.218633 109.280718 
L 74.150263 111.594455 
L 75.081893 113.593067 
L 76.013524 115.076979 
L 76.945154 115.89801 
L 77.876784 115.974174 
L 78.808415 115.297865 
L 79.740045 113.936619 
L 80.671675 112.026365 
L 81.603306 109.757858 
L 82.534936 107.357626 
L 83.466566 105.06535 
L 84.398197 103.109933 
L 85.329827 101.686637 
L 86.261458 100.93759 
L 87.193088 100.93759 
L 88.124718 101.686637 
L 89.056349 103.109933 
L 89.987979 105.06535 
L 90.919609 107.357626 
L 91.85124 109.757858 
L 92.78287 112.026365 
L 93.7145 113.936619 
L 94.646131 115.297865 
L 95.577761 115.974174 
L 96.509391 115.89801 
L 97.441022 115.076979 
L 98.372652 113.593067 
L 99.304282 111.594455 
L 100.235913 109.280718 
L 101.167543 106.882903 
L 102.099174 104.640449 
L 103.030804 102.777282 
L 103.962434 101.479456 
L 104.894065 100.876566 
L 105.825695 101.028817 
L 106.757325 101.921006 
L 107.688956 103.46404 
L 108.620586 105.503835 
L 109.552216 107.836702 
L 110.483847 110.229686 
L 111.415477 112.443829 
L 112.347107 114.258032 
L 113.278738 115.491133 
L 114.210368 116.019996 
L 115.141998 115.79181 
L 116.073629 114.829363 
L 117.005259 113.228761 
L 117.93689 111.149837 
L 118.86852 108.800188 
L 119.80015 106.414445 
L 120.731781 104.230842 
L 121.663411 102.467429 
L 122.595041 101.300297 
L 123.526672 100.845993 
L 124.458302 101.149882 
L 125.389932 102.18162 
L 126.321563 103.838178 
L 127.253193 105.954137 
L 128.184823 108.318202 
L 129.116454 110.694303 
L 130.048084 112.845167 
L 130.979715 114.556014 
L 131.911345 115.656002 
L 132.842975 116.03529 
" clip-path="url(#pd3ffd9a7a0)" style="fill: none; stroke: #44525c; stroke-width: 1.5; stroke-linecap: round"/>
   </g>
   <g id="line2d_11">
    <path d="M 115.141998 126 
L 115.141998 17.28 
" clip-path="url(#pd3ffd9a7a0)" style="fill: none; stroke: #eb7a59; stroke-width: 0.5; stroke-linecap: round"/>
   </g>
   <g id="patch_3">
    <path d="M 36 126 
L 36 17.28 
" style="fill: none; stroke: #000000; stroke-width: 0.7; stroke-linejoin: miter; stroke-linecap: square"/>
   </g>
   <g id="patch_4">
    <path d="M 137.454545 126 
L 137.454545 17.28 
" style="fill: none; stroke: #000000; stroke-width: 0.7; stroke-linejoin: miter; stroke-linecap: square"/>
   </g>
   <g id="patch_5">
    <path d="M 36 126 
L 137.454545 126 
" style="fill: none; stroke: #000000; stroke-width: 0.7; stroke-linejoin: miter; stroke-linecap: square"/>
   </g>
   <g id="patch_6">
    <path d="M 36 17.28 
L 137.454545 17.28 
" style="fill: none; stroke: #000000; stroke-width: 0.7; stroke-linejoin: miter; stroke-linecap: square"/>
   </g>
   <g id="text_10">
    <!-- $x$ -->
    <g transform="translate(112.295039 132.994464) scale(0.1 -0.1)">
     <defs>
      <path id="CMMI12-78" d="M 3034 2606 
C 2829 2567 2752 2414 2752 2293 
C 2752 2139 2874 2088 2963 2088 
C 3155 2088 3290 2254 3290 2427 
C 3290 2695 2982 2816 2714 2816 
C 2323 2816 2106 2433 2048 2312 
C 1901 2816 1504 2816 1389 2816 
C 736 2816 390 1980 390 1839 
C 390 1814 416 1782 461 1782 
C 512 1782 525 1820 538 1846 
C 755 2555 1184 2689 1370 2689 
C 1658 2689 1715 2420 1715 2267 
C 1715 2127 1677 1980 1600 1673 
L 1382 798 
C 1286 415 1101 64 762 64 
C 730 64 570 64 435 147 
C 666 192 717 383 717 460 
C 717 588 621 664 499 664 
C 346 664 179 530 179 326 
C 179 57 480 -64 755 -64 
C 1062 -64 1280 179 1414 441 
C 1517 64 1837 -64 2074 -64 
C 2726 -64 3072 773 3072 913 
C 3072 945 3046 971 3008 971 
C 2950 971 2944 939 2925 888 
C 2752 326 2381 64 2093 64 
C 1869 64 1747 230 1747 492 
C 1747 632 1773 734 1875 1156 
L 2099 2024 
C 2195 2408 2413 2689 2707 2689 
C 2720 2689 2899 2689 3034 2606 
z
" transform="scale(0.015625)"/>
     </defs>
     <use xlink:href="#CMMI12-78" transform="scale(0.996264)"/>
    </g>
   </g>
  </g>
  <g id="axes_2">
   <g id="patch_7">
    <path d="M 157.745455 126 
L 259.2 126 
L 259.2 17.28 
L 157.745455 17.28 
z
" style="fill: #ffffff"/>
   </g>
   <g id="PolyCollection_2">
    <defs>
     <path id="m7baaf74b30" d="M 162.357025 -20.677518 
L 162.357025 -23.974445 
L 163.288655 -25.148638 
L 164.220285 -27.48789 
L 165.151916 -31.407531 
L 166.083546 -37.141814 
L 167.015177 -44.267139 
L 167.946807 -51.446622 
L 168.878437 -56.911131 
L 169.810068 -59.403494 
L 170.741698 -58.680771 
L 171.673328 -55.28873 
L 172.604959 -50.111799 
L 173.536589 -44.097319 
L 174.468219 -38.122505 
L 175.39985 -32.871517 
L 176.33148 -28.728276 
L 177.26311 -25.764821 
L 178.194741 -23.839651 
L 179.126371 -22.737387 
L 180.058002 -22.276823 
L 180.989632 -22.363949 
L 181.921262 -23.00332 
L 182.852893 -24.282698 
L 183.784523 -26.334827 
L 184.716153 -29.28477 
L 185.647784 -33.202674 
L 186.579414 -38.051789 
L 187.511044 -43.561129 
L 188.442675 -48.986751 
L 189.374305 -52.945974 
L 190.305935 -53.756665 
L 191.237566 -50.483825 
L 192.169196 -43.930403 
L 193.100826 -36.313845 
L 194.032457 -29.745455 
L 194.964087 -25.130006 
L 195.895718 -22.303858 
L 196.827348 -20.713001 
L 197.758978 -19.86428 
L 198.690609 -19.444922 
L 199.622239 -19.293316 
L 200.553869 -19.351406 
L 201.4855 -19.640225 
L 202.41713 -20.260461 
L 203.34876 -21.402839 
L 204.280391 -23.328766 
L 205.212021 -26.256283 
L 206.143651 -30.126267 
L 207.075282 -34.381337 
L 208.006912 -38.012199 
L 208.938542 -39.961185 
L 209.870173 -39.644589 
L 210.801803 -37.247705 
L 211.733434 -33.608368 
L 212.665064 -29.765972 
L 213.596694 -26.489001 
L 214.528325 -24.086818 
L 215.459955 -22.522892 
L 216.391585 -21.625303 
L 217.323216 -21.2341 
L 218.254846 -21.260938 
L 219.186476 -21.697007 
L 220.118107 -22.594134 
L 221.049737 -24.017683 
L 221.981367 -25.96793 
L 222.912998 -28.303587 
L 223.844628 -30.734626 
L 224.776258 -32.906542 
L 225.707889 -34.505389 
L 226.639519 -35.304083 
L 227.57115 -35.160081 
L 228.50278 -34.034923 
L 229.43441 -32.06075 
L 230.366041 -29.580535 
L 231.297671 -27.063812 
L 232.229301 -24.918927 
L 233.160932 -23.353082 
L 234.092562 -22.381481 
L 235.024192 -21.932009 
L 235.955823 -21.94339 
L 236.887453 -22.417659 
L 237.819083 -23.441721 
L 238.750714 -25.197196 
L 239.682344 -27.955321 
L 240.613974 -32.020153 
L 241.545605 -37.552959 
L 242.477235 -44.236931 
L 243.408866 -50.915831 
L 244.340496 -55.636964 
L 245.272126 -56.530463 
L 246.203757 -53.13858 
L 247.135387 -46.868366 
L 248.067017 -39.941319 
L 248.998648 -33.991138 
L 249.930278 -29.591091 
L 250.861908 -26.617696 
L 251.793539 -24.734308 
L 252.725169 -23.652059 
L 253.656799 -23.20712 
L 254.58843 -23.373033 
L 254.58843 -20.977217 
L 254.58843 -20.977217 
L 253.656799 -21.394689 
L 252.725169 -22.177951 
L 251.793539 -23.501674 
L 250.861908 -25.574011 
L 249.930278 -28.526296 
L 248.998648 -32.217628 
L 248.067017 -36.087646 
L 247.135387 -39.263418 
L 246.203757 -40.921323 
L 245.272126 -40.644687 
L 244.340496 -38.568894 
L 243.408866 -35.297013 
L 242.477235 -31.640639 
L 241.545605 -28.300602 
L 240.613974 -25.665438 
L 239.682344 -23.815354 
L 238.750714 -22.653337 
L 237.819083 -22.038119 
L 236.887453 -21.860799 
L 235.955823 -22.072948 
L 235.024192 -22.694985 
L 234.092562 -23.829351 
L 233.160932 -25.692593 
L 232.229301 -28.661113 
L 231.297671 -33.280714 
L 230.366041 -40.103721 
L 229.43441 -49.146927 
L 228.50278 -59.000291 
L 227.57115 -66.455948 
L 226.639519 -68.017988 
L 225.707889 -62.741941 
L 224.776258 -53.202253 
L 223.844628 -43.230576 
L 222.912998 -35.279186 
L 221.981367 -29.885037 
L 221.049737 -26.55785 
L 220.118107 -24.623223 
L 219.186476 -23.568686 
L 218.254846 -23.086088 
L 217.323216 -23.026485 
L 216.391585 -23.357997 
L 215.459955 -24.145755 
L 214.528325 -25.551255 
L 213.596694 -27.838602 
L 212.665064 -31.353779 
L 211.733434 -36.406565 
L 210.801803 -42.976598 
L 209.870173 -50.307414 
L 208.938542 -56.783022 
L 208.006912 -60.560096 
L 207.075282 -60.687646 
L 206.143651 -57.644698 
L 205.212021 -52.797311 
L 204.280391 -47.485286 
L 203.34876 -42.544181 
L 202.41713 -38.333515 
L 201.4855 -34.94681 
L 200.553869 -32.373446 
L 199.622239 -30.56936 
L 198.690609 -29.478415 
L 197.758978 -29.043122 
L 196.827348 -29.215616 
L 195.895718 -29.965643 
L 194.964087 -31.281777 
L 194.032457 -33.157998 
L 193.100826 -35.544211 
L 192.169196 -38.236626 
L 191.237566 -40.733873 
L 190.305935 -42.205709 
L 189.374305 -41.7941 
L 188.442675 -39.216697 
L 187.511044 -35.133404 
L 186.579414 -30.76559 
L 185.647784 -27.110339 
L 184.716153 -24.536549 
L 183.784523 -22.940604 
L 182.852893 -22.065322 
L 181.921262 -21.689695 
L 180.989632 -21.680434 
L 180.058002 -21.987935 
L 179.126371 -22.638489 
L 178.194741 -23.735099 
L 177.26311 -25.455899 
L 176.33148 -28.017511 
L 175.39985 -31.543154 
L 174.468219 -35.785484 
L 173.536589 -39.816247 
L 172.604959 -42.107984 
L 171.673328 -41.398767 
L 170.741698 -37.798611 
L 169.810068 -32.825805 
L 168.878437 -28.199313 
L 167.946807 -24.797579 
L 167.015177 -22.645015 
L 166.083546 -21.40984 
L 165.151916 -20.76337 
L 164.220285 -20.488859 
L 163.288655 -20.472716 
L 162.357025 -20.677518 
z
" style="stroke: #f0e1f0"/>
    </defs>
    <g clip-path="url(#p6e4e685702)">
     <use xlink:href="#m7baaf74b30" x="0" y="144" style="fill: #f0e1f0; stroke: #f0e1f0"/>
    </g>
   </g>
   <g id="matplotlib.axis_3">
    <g id="xtick_5">
     <g id="line2d_12"/>
     <g id="text_11">
      <!-- $\mathdefault{0}$ -->
      <g transform="translate(160.371406 134.342938) scale(0.07 -0.07)">
       <use xlink:href="#CMR17-30" transform="scale(0.996264)"/>
      </g>
     </g>
    </g>
    <g id="xtick_6">
     <g id="line2d_13"/>
     <g id="text_12">
      <!-- $\mathdefault{10}$ -->
      <g transform="translate(187.743955 134.342938) scale(0.07 -0.07)">
       <use xlink:href="#CMR17-31" transform="scale(0.996264)"/>
       <use xlink:href="#CMR17-30" transform="translate(45.690477 0) scale(0.996264)"/>
      </g>
     </g>
    </g>
    <g id="xtick_7">
     <g id="line2d_14"/>
     <g id="text_13">
      <!-- $\mathdefault{20}$ -->
      <g transform="translate(217.102123 134.342938) scale(0.07 -0.07)">
       <use xlink:href="#CMR17-32" transform="scale(0.996264)"/>
       <use xlink:href="#CMR17-30" transform="translate(45.690477 0) scale(0.996264)"/>
      </g>
     </g>
    </g>
    <g id="xtick_8">
     <g id="line2d_15"/>
     <g id="text_14">
      <!-- $\mathdefault{30}$ -->
      <g transform="translate(246.460291 134.342938) scale(0.07 -0.07)">
       <use xlink:href="#CMR17-33" transform="scale(0.996264)"/>
       <use xlink:href="#CMR17-30" transform="translate(45.690477 0) scale(0.996264)"/>
      </g>
     </g>
    </g>
   </g>
   <g id="matplotlib.axis_4">
    <g id="ytick_6">
     <g id="line2d_16"/>
     <g id="text_15">
      <!-- $\mathdefault{0}$ -->
      <g transform="translate(150.274217 128.421469) scale(0.07 -0.07)">
       <use xlink:href="#CMR17-30" transform="scale(0.996264)"/>
      </g>
     </g>
    </g>
    <g id="ytick_7">
     <g id="line2d_17"/>
     <g id="text_16">
      <!-- $\mathdefault{2}$ -->
      <g transform="translate(150.274217 106.677469) scale(0.07 -0.07)">
       <use xlink:href="#CMR17-32" transform="scale(0.996264)"/>
      </g>
     </g>
    </g>
    <g id="ytick_8">
     <g id="line2d_18"/>
     <g id="text_17">
      <!-- $\mathdefault{4}$ -->
      <g transform="translate(150.274217 84.933469) scale(0.07 -0.07)">
       <defs>
        <path id="CMR17-34" d="M 2150 4122 
C 2150 4256 2144 4256 2029 4256 
L 128 1254 
L 128 1088 
L 1779 1088 
L 1779 457 
C 1779 224 1766 160 1318 160 
L 1197 160 
L 1197 0 
C 1402 0 1747 0 1965 0 
C 2182 0 2528 0 2733 0 
L 2733 160 
L 2611 160 
C 2163 160 2150 224 2150 457 
L 2150 1088 
L 2803 1088 
L 2803 1254 
L 2150 1254 
L 2150 4122 
z
M 1798 3703 
L 1798 1254 
L 256 1254 
L 1798 3703 
z
" transform="scale(0.015625)"/>
       </defs>
       <use xlink:href="#CMR17-34" transform="scale(0.996264)"/>
      </g>
     </g>
    </g>
    <g id="ytick_9">
     <g id="line2d_19"/>
     <g id="text_18">
      <!-- $\mathdefault{6}$ -->
      <g transform="translate(150.274217 63.189469) scale(0.07 -0.07)">
       <defs>
        <path id="CMR17-36" d="M 678 2176 
C 678 3690 1395 4032 1811 4032 
C 1946 4032 2272 4009 2400 3776 
C 2298 3776 2106 3776 2106 3553 
C 2106 3381 2246 3323 2336 3323 
C 2394 3323 2566 3348 2566 3560 
C 2566 3954 2246 4179 1805 4179 
C 1043 4179 243 3390 243 1984 
C 243 253 966 -128 1478 -128 
C 2099 -128 2688 427 2688 1283 
C 2688 2081 2170 2662 1517 2662 
C 1126 2662 838 2407 678 1960 
L 678 2176 
z
M 1478 25 
C 691 25 691 1200 691 1436 
C 691 1896 909 2560 1504 2560 
C 1613 2560 1926 2560 2138 2120 
C 2253 1870 2253 1609 2253 1289 
C 2253 944 2253 690 2118 434 
C 1978 171 1773 25 1478 25 
z
" transform="scale(0.015625)"/>
       </defs>
       <use xlink:href="#CMR17-36" transform="scale(0.996264)"/>
      </g>
     </g>
    </g>
    <g id="ytick_10">
     <g id="line2d_20"/>
     <g id="text_19">
      <!-- $\mathdefault{8}$ -->
      <g transform="translate(150.274217 41.445469) scale(0.07 -0.07)">
       <defs>
        <path id="CMR17-38" d="M 1741 2264 
C 2144 2467 2554 2773 2554 3263 
C 2554 3841 1990 4179 1472 4179 
C 890 4179 378 3759 378 3180 
C 378 3021 416 2747 666 2505 
C 730 2442 998 2251 1171 2130 
C 883 1983 211 1634 211 934 
C 211 279 838 -128 1459 -128 
C 2144 -128 2720 362 2720 1010 
C 2720 1590 2330 1857 2074 2029 
L 1741 2264 
z
M 902 2822 
C 851 2854 595 3051 595 3351 
C 595 3739 998 4032 1459 4032 
C 1965 4032 2336 3676 2336 3262 
C 2336 2669 1670 2331 1638 2331 
C 1632 2331 1626 2331 1574 2370 
L 902 2822 
z
M 2080 1519 
C 2176 1449 2483 1240 2483 851 
C 2483 381 2010 25 1472 25 
C 890 25 448 438 448 940 
C 448 1443 838 1862 1280 2060 
L 2080 1519 
z
" transform="scale(0.015625)"/>
       </defs>
       <use xlink:href="#CMR17-38" transform="scale(0.996264)"/>
      </g>
     </g>
    </g>
    <g id="ytick_11">
     <g id="line2d_21"/>
     <g id="text_20">
      <!-- $\mathdefault{10}$ -->
      <g transform="translate(146.302979 19.701469) scale(0.07 -0.07)">
       <use xlink:href="#CMR17-31" transform="scale(0.996264)"/>
       <use xlink:href="#CMR17-30" transform="translate(45.690477 0) scale(0.996264)"/>
      </g>
     </g>
    </g>
   </g>
   <g id="line2d_22">
    <path d="M 162.357025 122.000415 
L 163.288655 121.795651 
L 164.220285 121.140574 
L 165.151916 119.913131 
L 166.083546 117.920982 
L 167.015177 114.95413 
L 167.946807 110.92167 
L 168.878437 106.078484 
L 169.810068 101.224203 
L 170.741698 97.620029 
L 171.673328 96.461715 
L 172.604959 98.176436 
L 173.536589 102.139037 
L 174.468219 107.082059 
L 175.39985 111.808198 
L 176.33148 115.633196 
L 177.26311 118.391208 
L 178.194741 120.212861 
L 179.126371 121.312323 
L 180.058002 121.870146 
L 180.989632 121.992354 
L 181.921262 121.703405 
L 182.852893 120.946171 
L 183.784523 119.582907 
L 184.716153 117.411434 
L 185.647784 114.231333 
L 186.579414 110.000847 
L 187.511044 105.072765 
L 188.442675 100.359475 
L 189.374305 97.164119 
L 190.305935 96.580356 
L 191.237566 98.824954 
L 192.169196 103.092712 
L 193.100826 108.075102 
L 194.032457 112.656927 
L 194.964087 116.268652 
L 195.895718 118.823759 
L 196.827348 120.483844 
L 197.758978 121.462658 
L 198.690609 121.92748 
L 199.622239 121.968108 
L 200.553869 121.592692 
L 201.4855 120.727753 
L 202.41713 119.22039 
L 203.34876 116.861077 
L 204.280391 113.465241 
L 205.212021 109.050179 
L 206.143651 104.074166 
L 207.075282 99.556084 
L 208.006912 96.815739 
L 208.938542 96.815739 
L 209.870173 99.556084 
L 210.801803 104.074166 
L 211.733434 109.050179 
L 212.665064 113.465241 
L 213.596694 116.861077 
L 214.528325 119.22039 
L 215.459955 120.727753 
L 216.391585 121.592692 
L 217.323216 121.968108 
L 218.254846 121.92748 
L 219.186476 121.462658 
L 220.118107 120.483844 
L 221.049737 118.823759 
L 221.981367 116.268652 
L 222.912998 112.656927 
L 223.844628 108.075102 
L 224.776258 103.092712 
L 225.707889 98.824954 
L 226.639519 96.580356 
L 227.57115 97.164119 
L 228.50278 100.359475 
L 229.43441 105.072765 
L 230.366041 110.000847 
L 231.297671 114.231333 
L 232.229301 117.411434 
L 233.160932 119.582907 
L 234.092562 120.946171 
L 235.024192 121.703405 
L 235.955823 121.992354 
L 236.887453 121.870146 
L 237.819083 121.312323 
L 238.750714 120.212861 
L 239.682344 118.391208 
L 240.613974 115.633196 
L 241.545605 111.808198 
L 242.477235 107.082059 
L 243.408866 102.139037 
L 244.340496 98.176436 
L 245.272126 96.461715 
L 246.203757 97.620029 
L 247.135387 101.224203 
L 248.067017 106.078484 
L 248.998648 110.92167 
L 249.930278 114.95413 
L 250.861908 117.920982 
L 251.793539 119.913131 
L 252.725169 121.140574 
L 253.656799 121.795651 
L 254.58843 122.000415 
" clip-path="url(#p6e4e685702)" style="fill: none; stroke: #b56ab6; stroke-width: 1.5; stroke-linecap: round"/>
   </g>
   <g id="line2d_23">
    <path d="M 236.887453 126 
L 236.887453 17.28 
" clip-path="url(#p6e4e685702)" style="fill: none; stroke: #eb7a59; stroke-width: 0.5; stroke-linecap: round"/>
   </g>
   <g id="patch_8">
    <path d="M 157.745455 126 
L 157.745455 17.28 
" style="fill: none; stroke: #000000; stroke-width: 0.7; stroke-linejoin: miter; stroke-linecap: square"/>
   </g>
   <g id="patch_9">
    <path d="M 259.2 126 
L 259.2 17.28 
" style="fill: none; stroke: #000000; stroke-width: 0.7; stroke-linejoin: miter; stroke-linecap: square"/>
   </g>
   <g id="patch_10">
    <path d="M 157.745455 126 
L 259.2 126 
" style="fill: none; stroke: #000000; stroke-width: 0.7; stroke-linejoin: miter; stroke-linecap: square"/>
   </g>
   <g id="patch_11">
    <path d="M 157.745455 17.28 
L 259.2 17.28 
" style="fill: none; stroke: #000000; stroke-width: 0.7; stroke-linejoin: miter; stroke-linecap: square"/>
   </g>
   <g id="text_21">
    <!-- $x$ -->
    <g transform="translate(234.040494 134.170136) scale(0.1 -0.1)">
     <use xlink:href="#CMMI12-78" transform="scale(0.996264)"/>
    </g>
   </g>
  </g>
 </g>
 <defs>
  <clipPath id="pd3ffd9a7a0">
   <rect x="36" y="17.28" width="101.454545" height="108.72"/>
  </clipPath>
  <clipPath id="p6e4e685702">
   <rect x="157.745455" y="17.28" width="101.454545" height="108.72"/>
  </clipPath>
 </defs>
</svg>
