<?xml version="1.0" encoding="utf-8" standalone="no"?>
<!DOCTYPE svg PUBLIC "-//W3C//DTD SVG 1.1//EN"
  "http://www.w3.org/Graphics/SVG/1.1/DTD/svg11.dtd">
<svg xmlns:xlink="http://www.w3.org/1999/xlink" width="144pt" height="108pt" viewBox="0 0 144 108" xmlns="http://www.w3.org/2000/svg" version="1.1">
 <metadata>
  <rdf:RDF xmlns:dc="http://purl.org/dc/elements/1.1/" xmlns:cc="http://creativecommons.org/ns#" xmlns:rdf="http://www.w3.org/1999/02/22-rdf-syntax-ns#">
   <cc:Work>
    <dc:type rdf:resource="http://purl.org/dc/dcmitype/StillImage"/>
    <dc:date>2023-07-11T17:33:41.784552</dc:date>
    <dc:format>image/svg+xml</dc:format>
    <dc:creator>
     <cc:Agent>
      <dc:title>Matplotlib v3.7.1, https://matplotlib.org/</dc:title>
     </cc:Agent>
    </dc:creator>
   </cc:Work>
  </rdf:RDF>
 </metadata>
 <defs>
  <style type="text/css">*{stroke-linejoin: round; stroke-linecap: butt}</style>
 </defs>
 <g id="figure_1">
  <g id="patch_1">
   <path d="M 0 108 
L 144 108 
L 144 0 
L 0 0 
L 0 108 
z
" style="fill: none"/>
  </g>
  <g id="axes_1">
   <g id="patch_2">
    <path d="M 18 94.5 
L 129.6 94.5 
L 129.6 12.96 
L 18 12.96 
z
" style="fill: #ffffff"/>
   </g>
   <g id="PathCollection_1">
    <defs>
     <path id="mf0730b03e1" d="M 0 3 
C 0.795609 3 1.55874 2.683901 2.12132 2.12132 
C 2.683901 1.55874 3 0.795609 3 0 
C 3 -0.795609 2.683901 -1.55874 2.12132 -2.12132 
C 1.55874 -2.683901 0.795609 -3 0 -3 
C -0.795609 -3 -1.55874 -2.683901 -2.12132 -2.12132 
C -2.683901 -1.55874 -3 -0.795609 -3 0 
C -3 0.795609 -2.683901 1.55874 -2.12132 2.12132 
C -1.55874 2.683901 -0.795609 3 0 3 
z
" style="stroke: #44525c"/>
    </defs>
    <g clip-path="url(#pff16c65b5f)">
     <use xlink:href="#mf0730b03e1" x="74.670519" y="80.194026" style="fill: #44525c; stroke: #44525c"/>
    </g>
   </g>
   <g id="matplotlib.axis_1"/>
   <g id="matplotlib.axis_2"/>
   <g id="line2d_1">
    <path d="M 33.98654 35.514298 
L 33.895726 35.877546 
L 33.804914 35.33267 
L 33.804914 35.514298 
L 33.441664 35.423484 
L 33.26004 35.968359 
L 33.26004 35.968359 
L 32.89679 36.331608 
L 32.715165 35.877546 
L 32.53354 36.331608 
L 32.53354 36.331608 
L 32.17029 36.422421 
L 31.897853 35.968359 
L 30.989728 35.423484 
L 30.808103 35.695922 
L 30.717291 35.151046 
L 30.535666 35.33267 
L 30.535666 34.878609 
L 30.535666 35.060233 
L 30.717291 34.969422 
L 30.808103 35.24186 
L 30.898915 34.787795 
L 31.080541 35.151046 
L 31.080541 34.787795 
L 31.352978 35.24186 
L 31.352978 34.878609 
L 31.534603 35.060233 
L 31.625416 34.606171 
L 31.625416 34.969422 
L 31.897853 34.696985 
L 31.988665 35.24186 
L 32.17029 35.24186 
L 32.351915 35.968359 
L 32.805978 36.149983 
L 33.169227 37.148921 
L 33.441664 37.239734 
L 33.98654 38.057044 
L 34.258977 37.87542 
L 34.622227 38.329482 
L 34.894663 37.693796 
L 35.167101 38.057044 
L 35.439539 37.693796 
L 35.711976 38.238671 
L 35.8936 38.147858 
L 35.984414 38.692733 
L 35.984414 38.692733 
L 35.621164 38.783544 
L 35.621164 38.329482 
L 35.530351 39.873294 
L 35.348727 39.600857 
L 35.167101 39.600857 
L 34.894663 38.692733 
L 34.985477 39.055981 
L 35.167101 39.146795 
L 35.348727 39.964108 
L 35.530351 39.873294 
L 35.802788 40.599794 
L 35.8936 40.41817 
L 35.8936 40.41817 
L 35.530351 40.327356 
L 35.530351 40.327356 
L 34.531413 39.419233 
L 34.622227 40.054918 
L 34.713039 39.964108 
L 34.894663 40.41817 
L 35.076289 39.782481 
L 35.076289 39.782481 
L 35.348727 39.510043 
L 35.530351 37.87542 
L 35.530351 37.87542 
L 35.621164 35.786732 
L 35.802788 35.877546 
L 35.984414 35.514298 
L 36.075226 35.968359 
L 36.347664 35.605108 
L 36.347664 36.513235 
L 36.166038 36.331608 
L 36.166038 36.876483 
L 35.984414 36.785669 
L 35.984414 36.785669 
L 35.257913 37.693796 
L 35.076289 37.512169 
L 35.076289 37.512169 
L 34.803851 38.73814 
L 34.713039 39.328419 
L 34.622227 39.237605 
L 34.258977 41.507917 
L 34.258977 42.416044 
L 34.258977 42.416044 
L 34.440601 43.596605 
L 34.440601 43.505792 
L 34.168164 43.142544 
L 34.077352 43.233354 
L 33.98654 42.688482 
L 34.077352 42.779292 
L 34.349789 43.233354 
L 34.349789 42.870106 
L 34.531413 43.233354 
L 34.713039 42.688482 
L 34.713039 42.960916 
L 35.257913 42.143606 
L 35.167101 42.870106 
L 35.167101 42.870106 
L 34.985477 43.05173 
L 34.803851 42.597668 
L 34.622227 42.779292 
L 34.440601 42.052793 
L 34.258977 42.143606 
L 34.258977 41.780355 
L 34.258977 42.325231 
L 34.440601 42.416044 
L 34.803851 43.05173 
L 34.985477 42.960916 
L 34.985477 43.505792 
L 34.985477 43.505792 
L 35.257913 43.778229 
L 35.348727 43.505792 
L 35.621164 44.050667 
L 35.8936 43.324168 
L 35.621164 44.141481 
L 35.439539 43.959853 
L 35.348727 44.232291 
L 35.167101 43.778229 
L 35.076289 44.141481 
L 35.076289 43.959853 
L 35.257913 45.231228 
L 35.257913 44.686353 
L 35.167101 45.049604 
L 35.076289 44.413919 
L 34.985477 44.686353 
L 34.985477 44.413919 
L 35.167101 44.86798 
L 35.167101 44.86798 
L 35.348727 45.049604 
L 35.257913 45.049604 
L 35.167101 45.231228 
L 34.985477 44.686353 
L 34.985477 44.686353 
L 35.348727 45.140418 
L 35.439539 45.68529 
L 35.439539 45.59448 
L 35.711976 45.322042 
L 35.802788 45.866917 
L 35.984414 45.59448 
L 35.984414 45.866917 
L 35.984414 45.412856 
L 35.923872 45.412856 
L 35.802788 45.412856 
L 35.802788 45.412856 
L 35.257913 44.504729 
L 35.076289 44.686353 
L 34.803851 43.959853 
L 34.894663 45.049604 
L 34.985477 45.322042 
L 34.985477 45.049604 
L 35.167101 45.049604 
L 35.167101 45.049604 
L 35.348727 45.231228 
L 35.348727 45.503666 
L 35.348727 45.412856 
L 35.167101 44.86798 
L 35.167101 45.049604 
L 35.167101 44.504729 
L 35.167101 45.049604 
L 35.348727 44.777167 
L 35.167101 44.232291 
L 35.167101 44.323105 
L 35.167101 43.869043 
L 35.530351 44.595543 
L 35.530351 44.141481 
L 35.530351 44.777167 
L 35.530351 44.413919 
L 35.711976 44.141481 
L 35.802788 44.595543 
L 35.8936 44.323105 
L 36.075226 44.777167 
L 36.075226 44.777167 
L 36.25685 44.686353 
L 36.075226 43.959853 
L 36.075226 43.959853 
L 35.802788 43.687419 
L 35.802788 44.232291 
L 35.984414 44.050667 
L 35.984414 44.050667 
L 35.802788 43.778229 
L 35.530351 43.687419 
L 35.348727 42.960916 
L 35.257913 43.233354 
L 35.439539 43.142544 
L 35.439539 43.959853 
L 35.439539 43.505792 
L 35.257913 43.778229 
L 35.076289 43.233354 
L 35.076289 43.414981 
L 35.076289 44.141481 
L 35.257913 44.050667 
L 35.257913 44.050667 
L 35.257913 43.596605 
L 35.257913 43.233354 
L 35.257913 43.233354 
L 35.439539 42.960916 
L 35.439539 43.233354 
L 35.439539 43.233354 
L 34.803851 40.327356 
L 34.803851 38.511106 
L 34.985477 38.60192 
L 35.167101 38.057044 
L 35.257913 38.238671 
L 35.348727 37.421358 
L 35.167101 37.602982 
L 35.076289 37.058107 
L 34.894663 37.239734 
L 34.713039 36.876483 
L 34.349789 38.874357 
L 34.258977 38.511106 
L 34.077352 38.965171 
L 33.98654 38.420296 
L 33.895726 38.692733 
L 33.804914 37.693796 
L 33.895726 37.87542 
L 33.98654 37.239734 
L 34.168164 37.512169 
L 34.349789 36.967297 
L 34.531413 37.421358 
L 34.622227 36.967297 
L 34.713039 37.239734 
L 34.713039 37.058107 
L 34.622227 37.512169 
L 34.531413 37.058107 
L 34.168164 37.784606 
L 34.168164 37.602982 
L 34.077352 39.873294 
L 33.98654 39.782481 
L 33.895726 40.145732 
L 33.804914 39.964108 
L 33.714102 40.327356 
L 33.62329 39.964108 
L 33.62329 40.41817 
L 33.804914 39.964108 
L 33.804914 40.781418 
L 33.804914 39.873294 
L 33.714102 40.054918 
L 33.62329 39.237605 
L 33.714102 39.419233 
L 33.714102 38.965171 
L 33.804914 40.599794 
L 33.895726 40.690608 
L 33.804914 42.234417 
L 33.714102 42.416044 
L 33.804914 44.958791 
L 33.804914 44.958791 
L 33.98654 46.684227 
L 34.168164 47.319916 
L 34.168164 47.319916 
L 36.075226 50.498352 
L 36.075226 50.498352 
L 35.802788 51.860537 
L 35.8936 51.678913 
L 35.8936 52.405413 
L 35.711976 51.951351 
L 35.348727 52.405413 
L 35.348727 52.405413 
L 34.440601 51.769727 
L 34.258977 51.951351 
L 34.077352 51.678913 
L 34.077352 51.860537 
L 34.077352 51.406475 
L 34.258977 51.860537 
L 33.941133 51.315665 
L 33.804914 51.315665 
L 33.714102 50.679976 
L 33.532476 50.952414 
L 33.532476 50.589166 
L 33.532476 51.406475 
L 33.532476 51.224851 
L 33.714102 51.406475 
L 33.804914 51.134038 
L 33.804914 51.134038 
L 34.168164 50.77079 
L 34.168164 50.77079 
L 34.622227 50.498352 
L 34.894663 50.8616 
L 34.894663 50.8616 
L 35.348727 50.8616 
L 35.530351 50.407538 
L 35.530351 50.589166 
L 34.985477 49.499415 
L 34.803851 49.499415 
L 34.440601 48.772915 
L 34.440601 48.772915 
L 33.350852 44.232291 
L 33.350852 43.142544 
L 33.532476 42.960916 
L 33.98654 40.781418 
L 34.077352 40.872232 
L 34.168164 39.419233 
L 33.98654 39.69167 
L 33.98654 39.69167 
L 33.532476 40.236543 
L 33.441664 40.054918 
L 33.26004 40.50898 
L 33.169227 40.327356 
L 33.169227 40.327356 
L 32.987603 40.41817 
L 32.987603 40.872232 
L 33.078415 40.690608 
L 33.169227 40.50898 
L 33.169227 40.872232 
L 33.078415 40.372763 
L 32.866519 39.843023 
L 32.624353 39.328419 
L 32.684894 38.753272 
L 32.805978 38.692733 
L 32.805978 38.692733 
L 33.62329 40.872232 
L 33.62329 40.872232 
L 34.894663 42.052793 
L 35.8936 41.598731 
L 35.8936 41.598731 
L 41.433162 44.86798 
L 42.341285 44.686353 
L 42.341285 44.958791 
L 42.341285 44.958791 
L 41.978035 44.595543 
L 41.796411 44.050667 
L 41.887223 44.323105 
L 42.341285 43.778229 
L 42.432097 43.233354 
L 42.341285 43.324168 
L 42.341285 42.688482 
L 42.250473 42.779292 
L 42.068847 42.052793 
L 41.887223 42.325231 
L 41.796411 41.780355 
L 41.887223 41.961979 
L 42.159661 41.417107 
L 42.341285 40.781418 
L 42.341285 40.781418 
L 42.432097 40.054918 
L 42.613723 40.054918 
L 42.976973 38.147858 
L 42.886161 37.966234 
L 42.886161 37.148921 
L 43.067785 35.24186 
L 42.976973 35.423484 
L 43.067785 34.333733 
L 43.24941 33.42561 
L 43.24941 33.607234 
L 42.976973 32.971548 
L 42.704535 33.153175 
L 42.432097 32.699107 
L 42.432097 32.789921 
L 42.613723 31.972611 
L 42.704535 32.063424 
L 42.886161 31.427735 
L 43.067785 31.518549 
L 43.24941 30.701239 
L 43.521848 30.88286 
L 43.521848 30.88286 
L 43.61266 29.248234 
L 43.703472 29.429861 
L 43.61266 29.157427 
L 43.521848 29.520675 
L 43.340222 29.157427 
L 43.431034 29.429861 
L 43.794284 28.884986 
L 44.157535 29.248234 
L 44.339159 28.794172 
L 44.611597 29.157427 
L 44.611597 29.157427 
L 45.247285 29.248234 
L 45.519721 28.975799 
L 45.428909 29.611488 
L 45.156471 29.611488 
L 44.884035 30.247171 
L 44.884035 30.156364 
L 45.156471 30.247171 
L 45.428909 30.610426 
L 45.701346 30.156364 
L 45.701346 30.156364 
L 45.882972 30.156364 
L 45.882972 30.247171 
L 46.064596 30.519612 
L 46.427846 30.247171 
L 46.427846 30.247171 
L 47.335971 30.156364 
L 47.880846 30.428798 
L 48.244094 30.156364 
L 48.244094 30.156364 
L 49.515469 30.337985 
L 49.515469 30.337985 
L 49.697093 31.336922 
L 49.697093 31.336922 
L 50.151158 31.790983 
L 50.423593 31.609363 
L 50.60522 31.972611 
L 50.877658 31.70017 
L 51.240906 32.154238 
L 51.513344 31.881797 
L 51.513344 31.881797 
L 52.330657 32.154238 
L 52.784719 32.6083 
L 53.23878 32.245045 
L 53.23878 32.245045 
L 55.327468 32.6083 
L 56.053968 33.153175 
L 56.053968 33.153175 
L 62.592463 34.787795 
L 62.501652 34.424547 
L 62.501652 34.424547 
L 62.138401 34.424547 
L 62.138401 34.424547 
L 63.863838 33.788861 
L 63.228152 34.061295 
L 63.5914 34.152109 
L 63.5914 33.879671 
L 63.5914 33.879671 
L 63.318962 34.333733 
L 62.774087 33.879671 
L 62.774087 33.879671 
L 62.047587 33.879671 
L 62.047587 33.879671 
L 62.320025 34.061295 
L 62.320025 34.061295 
L 62.774087 34.152109 
L 62.774087 34.152109 
L 62.410839 33.698047 
L 62.229215 33.970485 
L 62.229215 33.516423 
L 62.229215 33.516423 
L 64.227089 32.789921 
L 64.227089 32.789921 
L 63.409776 31.246108 
L 63.5914 30.428798 
L 63.863838 30.610426 
L 64.045462 30.156364 
L 64.227089 31.609363 
L 64.045462 32.699107 
L 64.045462 32.699107 
L 63.50059 34.152109 
L 63.50059 34.152109 
L 62.592463 35.695922 
L 60.594588 37.330545 
L 60.322151 37.148921 
L 60.322151 37.87542 
L 60.322151 37.693796 
L 61.684339 38.511106 
L 61.684339 38.511106 
L 62.774087 40.054918 
L 63.228152 40.236543 
L 63.228152 40.236543 
L 63.863838 41.689545 
L 64.136275 42.870106 
L 64.136275 42.870106 
L 63.50059 43.596605 
L 63.409776 43.324168 
L 63.409776 44.050667 
L 63.409776 43.233354 
L 63.409776 43.233354 
L 64.681151 43.142544 
L 64.771961 42.870106 
L 64.953589 43.233354 
L 64.681151 42.779292 
L 64.499523 42.960916 
L 64.499523 42.960916 
L 64.408713 42.688482 
L 64.590337 43.233354 
L 64.499523 42.688482 
L 64.590337 43.05173 
L 64.408713 42.688482 
L 64.590337 43.142544 
L 64.590337 43.142544 
L 64.590337 42.688482 
L 64.681151 42.960916 
L 64.771961 42.597668 
L 64.681151 43.05173 
L 64.590337 42.870106 
L 64.590337 42.325231 
L 64.317899 42.506855 
L 64.136275 41.598731 
L 63.954651 41.507917 
L 63.863838 40.50898 
L 63.863838 40.50898 
L 64.227089 38.965171 
L 64.227089 38.965171 
L 65.226026 37.330545 
L 65.226026 37.330545 
L 66.588211 35.423484 
L 66.588211 35.423484 
L 67.496335 33.153175 
L 67.496335 33.153175 
L 68.313648 30.88286 
L 68.313648 30.88286 
L 69.221772 30.156364 
L 70.039085 30.337985 
L 69.857461 30.156364 
L 69.766647 30.610426 
L 69.948271 30.247171 
L 70.856398 29.793109 
L 71.401273 29.883923 
L 71.673708 29.248234 
L 71.946145 29.248234 
L 72.036959 28.612551 
L 71.855335 28.703365 
L 71.401273 27.886048 
L 71.401273 27.886048 
L 71.038022 26.705491 
L 71.038022 25.888174 
L 71.219646 26.43305 
L 71.31046 26.160615 
L 71.673708 26.523863 
L 72.218583 25.978988 
L 72.491021 26.160615 
L 72.581834 25.706553 
L 72.581834 26.069801 
L 72.491021 25.524926 
L 72.491021 25.978988 
L 72.40021 25.978988 
L 72.40021 25.706553 
L 72.40021 26.069801 
L 72.40021 26.069801 
L 72.218583 26.160615 
L 72.218583 26.160615 
L 71.855335 26.160615 
L 71.764521 25.978988 
L 71.855335 26.43305 
L 71.855335 26.43305 
L 71.31046 27.341173 
L 71.31046 27.341173 
L 69.948271 28.975799 
L 69.857461 30.792046 
L 69.948271 30.792046 
L 70.129898 31.427735 
L 70.311522 31.336922 
L 70.220709 31.972611 
L 70.039085 31.609363 
L 69.857461 31.790983 
L 69.585023 31.336922 
L 69.585023 31.336922 
L 69.675837 30.792046 
L 69.857461 30.973674 
L 70.402336 30.247171 
L 70.947208 30.428798 
L 70.947208 30.428798 
L 77.213269 30.428798 
L 77.213269 30.428798 
L 78.48464 32.063424 
L 78.212206 31.881797 
L 77.848958 32.426673 
L 77.576517 32.335859 
L 77.394896 33.243982 
L 77.122455 32.880734 
L 76.850021 33.243982 
L 76.850021 32.789921 
L 77.031642 33.243982 
L 77.213269 32.880734 
L 77.485703 33.153175 
L 77.667331 32.880734 
L 77.667331 33.062362 
L 77.394896 32.517486 
L 76.940834 32.517486 
L 76.395959 31.518549 
L 76.759207 31.881797 
L 77.304083 31.518549 
L 77.304083 31.518549 
L 78.575454 32.426673 
L 78.757081 32.971548 
L 78.757081 32.789921 
L 78.393833 33.243982 
L 77.939772 32.880734 
L 77.848958 33.243982 
L 78.121392 33.062362 
L 78.575454 33.698047 
L 79.211143 33.516423 
L 80.119267 34.424547 
L 80.119267 33.970485 
L 80.21008 33.970485 
L 79.756019 33.788861 
L 79.756019 33.788861 
L 79.301957 33.879671 
L 79.301957 33.516423 
L 79.301957 33.516423 
L 79.665205 33.698047 
L 79.574391 34.152109 
L 79.211143 33.607234 
L 79.211143 33.607234 
L 78.393833 33.243982 
L 78.212206 33.516423 
L 78.393833 33.153175 
L 78.48464 33.607234 
L 78.847895 33.42561 
L 79.12033 33.970485 
L 79.483578 33.788861 
L 79.483578 33.788861 
L 79.756019 34.152109 
L 79.756019 34.152109 
L 79.392771 36.05917 
L 79.029516 36.604045 
L 78.757081 36.513235 
L 78.666268 37.724067 
L 78.666268 38.874357 
L 78.575454 38.511106 
L 78.30302 38.874357 
L 78.121392 38.420296 
L 78.030579 38.874357 
L 78.030579 38.692733 
L 77.939772 40.145732 
L 77.848958 39.782481 
L 77.848958 40.327356 
L 77.848958 40.327356 
L 77.485703 40.781418 
L 77.304083 40.41817 
L 76.940834 40.690608 
L 76.759207 40.327356 
L 76.850021 40.872232 
L 76.668393 39.964108 
L 76.850021 40.327356 
L 77.304083 39.964108 
L 76.850021 40.327356 
L 78.575454 40.145732 
L 78.666268 39.69167 
L 78.666268 39.69167 
L 79.12033 40.145732 
L 79.12033 40.145732 
L 79.301957 39.69167 
L 79.301957 39.782481 
L 79.392771 40.145732 
L 79.211143 39.419233 
L 79.211143 39.419233 
L 78.666268 38.420296 
L 78.847895 39.328419 
L 78.575454 37.421358 
L 78.757081 37.512169 
L 78.757081 37.512169 
L 80.573328 35.968359 
L 81.390645 35.877546 
L 81.390645 35.877546 
L 86.385324 32.880734 
L 86.022076 33.42561 
L 86.022076 33.42561 
L 87.83833 32.245045 
L 87.83833 32.245045 
L 88.746453 32.335859 
L 88.746453 32.335859 
L 90.108638 32.699107 
L 90.108638 32.699107 
L 90.653514 33.607234 
L 90.653514 33.607234 
L 89.927011 35.786732 
L 90.017825 36.694859 
L 90.199452 36.876483 
L 90.199452 36.876483 
L 90.381073 37.784606 
L 90.381073 37.784606 
L 89.927011 38.057044 
L 90.108638 38.238671 
L 89.927011 38.057044 
L 89.836204 38.692733 
L 90.017825 38.692733 
L 90.017825 38.692733 
L 91.743265 40.41817 
L 91.743265 40.41817 
L 92.28814 40.599794 
L 92.197326 40.963045 
L 92.28814 40.599794 
L 92.651388 40.41817 
L 92.651388 40.41817 
L 93.559512 40.327356 
L 93.559512 40.327356 
L 95.103324 40.054918 
L 94.830883 40.50898 
L 95.012511 39.510043 
L 95.012511 39.510043 
L 95.194138 39.237605 
L 95.012511 39.69167 
L 95.6482 39.600857 
L 95.375759 39.782481 
L 96.283882 40.327356 
L 95.920634 40.327356 
L 95.920634 40.327356 
L 96.647137 41.326293 
L 96.919571 42.234417 
L 96.828758 42.234417 
L 97.373633 41.280887 
L 97.55526 41.144669 
L 97.55526 41.144669 
L 97.918508 35.605108 
L 97.918508 35.605108 
L 94.286014 30.247171 
L 94.467635 31.064487 
L 94.104387 30.06555 
L 94.104387 30.428798 
L 94.740076 29.611488 
L 94.740076 29.611488 
L 95.6482 29.520675 
L 95.012511 30.06555 
L 95.6482 29.520675 
L 97.55526 30.247171 
L 97.282819 30.156364 
L 98.554197 31.155301 
L 98.554197 31.155301 
L 99.462321 30.88286 
L 99.462321 30.88286 
L 101.006134 29.520675 
L 100.91532 30.06555 
L 100.824506 29.157427 
L 100.824506 29.157427 
L 100.188824 29.066613 
L 100.188824 29.066613 
L 99.643948 28.703365 
L 99.825569 29.248234 
L 99.825569 29.248234 
L 99.462321 28.884986 
L 99.734762 28.158489 
L 99.734762 28.158489 
L 101.369382 29.611488 
L 101.823443 30.337985 
L 101.551009 30.337985 
L 101.551009 30.337985 
L 102.005071 30.610426 
L 102.095884 30.973674 
L 102.005071 30.792046 
L 102.186698 29.974736 
L 102.186698 29.429861 
L 102.186698 29.429861 
L 102.005071 29.248234 
L 102.005071 29.248234 
L 101.641823 29.066613 
L 101.914257 29.520675 
L 101.369382 28.612551 
L 101.369382 28.612551 
L 101.551009 27.704428 
L 101.551009 27.704428 
L 101.823443 27.431987 
L 101.73263 27.704428 
L 101.823443 27.704428 
L 101.73263 28.158489 
L 101.823443 27.704428 
L 101.914257 28.067676 
L 101.914257 27.795235 
L 102.186698 28.067676 
L 102.186698 27.795235 
L 102.186698 28.067676 
L 102.549946 27.795235 
L 102.913194 28.067676 
L 103.276442 27.704428 
L 103.639697 28.067676 
L 103.912131 27.704428 
L 104.275379 28.158489 
L 104.457007 27.795235 
L 104.54782 28.158489 
L 104.729441 27.704428 
L 104.911068 28.158489 
L 104.729441 28.067676 
L 104.638634 28.430924 
L 104.820255 28.067676 
L 104.911068 28.612551 
L 105.001882 28.34011 
L 105.001882 28.34011 
L 105.546758 28.430924 
L 105.819192 28.884986 
L 105.819192 28.884986 
L 106.818129 29.339047 
L 106.818129 29.339047 
L 108.543569 32.335859 
L 108.816003 33.153175 
L 109.179252 33.153175 
L 109.451693 34.061295 
L 109.360879 33.925078 
L 109.270065 33.788861 
L 109.451693 34.242923 
L 109.542506 34.061295 
L 109.724127 34.606171 
L 109.542506 35.33267 
L 109.270065 35.151046 
L 108.906817 35.695922 
L 108.543569 35.423484 
L 108.452755 35.968359 
L 108.452755 35.968359 
L 108.634383 36.694859 
L 108.816003 36.604045 
L 108.906817 37.239734 
L 108.997631 36.967297 
L 109.270065 37.148921 
L 109.270065 36.513235 
L 109.270065 36.694859 
L 109.542506 35.968359 
L 109.542506 35.060233 
L 109.542506 35.060233 
L 109.996568 34.606171 
L 109.996568 34.606171 
L 110.813878 34.152109 
L 110.995505 34.696985 
L 111.086319 34.333733 
L 111.26794 34.787795 
L 111.131719 34.651578 
L 110.995505 34.787795 
L 110.995505 34.787795 
L 110.995505 34.152109 
L 111.018209 34.356437 
L 111.358753 34.152109 
L 111.358753 34.424547 
L 111.26794 34.333733 
L 111.086319 35.151046 
L 110.995505 35.151046 
L 110.904691 36.149983 
L 110.541443 37.148921 
L 110.178189 37.148921 
L 110.178189 37.148921 
L 109.179252 37.602982 
L 108.72519 38.238671 
L 108.452755 38.329482 
L 108.452755 38.329482 
L 107.817066 39.419233 
L 107.817066 39.237605 
L 107.90788 39.69167 
L 107.90788 39.69167 
L 108.089507 39.782481 
L 108.180314 40.41817 
L 108.180314 40.41817 
L 108.361942 40.872232 
L 108.543569 40.50898 
L 108.452755 40.963045 
L 108.543569 40.145732 
L 108.72519 40.781418 
L 108.816003 40.690608 
L 108.997631 42.052793 
L 108.816003 41.417107 
L 108.72519 42.052793 
L 108.72519 41.326293 
L 108.72519 41.689545 
L 108.906817 41.598731 
L 108.997631 42.052793 
L 109.088444 41.507917 
L 108.906817 41.780355 
L 109.088444 41.326293 
L 109.179252 41.598731 
L 109.360879 41.326293 
L 109.451693 41.780355 
L 109.724127 41.689545 
L 109.905754 41.961979 
L 110.269002 41.689545 
L 110.63225 41.961979 
L 111.086319 41.417107 
L 111.449567 41.507917 
L 111.903629 40.690608 
L 112.266877 40.50898 
L 112.720938 39.782481 
L 113.084193 39.600857 
L 113.538255 38.692733 
L 113.901503 38.60192 
L 114.355565 37.784606 
L 114.809626 37.693796 
L 115.172875 36.604045 
L 115.263688 35.786732 
L 115.354502 33.879671 
L 115.354502 33.879671 
L 115.082061 32.789921 
L 114.809626 32.880734 
L 114.718813 32.335859 
L 114.718813 32.335859 
L 116.262625 32.517486 
L 116.262625 32.517486 
L 116.807501 33.516423 
L 116.807501 33.516423 
L 116.716687 34.061295 
L 116.807501 34.787795 
L 116.807501 34.787795 
L 116.989128 35.33267 
L 116.989128 35.151046 
L 116.898314 35.786732 
L 116.807501 35.605108 
L 116.989128 36.149983 
L 116.989128 36.149983 
L 117.261563 36.149983 
L 117.261563 36.149983 
L 117.624811 36.331608 
L 117.624811 36.05917 
L 117.715624 36.604045 
L 117.897252 36.331608 
L 117.897252 36.331608 
L 118.169686 36.513235 
L 118.532941 36.967297 
L 118.623748 36.513235 
L 118.896189 36.694859 
L 119.713499 35.24186 
L 119.713499 31.427735 
L 119.804312 31.518549 
L 120.16756 31.518549 
L 120.258374 31.155301 
L 120.440001 31.70017 
L 120.712436 31.518549 
L 120.712436 31.518549 
L 121.438939 32.971548 
L 121.438939 32.971548 
L 121.893 35.786732 
L 121.893 35.786732 
L 121.348125 39.328419 
L 121.075684 39.419233 
L 120.894063 40.41817 
L 120.712436 40.599794 
L 120.621622 41.417107 
L 120.440001 41.326293 
L 120.440001 41.689545 
L 120.349188 41.23548 
L 120.349188 41.598731 
L 120.258374 41.326293 
L 120.349188 41.780355 
L 120.349188 41.780355 
L 120.258374 41.871169 
L 120.258374 41.780355 
L 120.16756 42.779292 
L 120.258374 42.688482 
L 120.349188 43.142544 
L 120.440001 42.779292 
L 120.621622 42.960916 
L 120.894063 42.506855 
L 121.166498 42.870106 
L 121.529746 42.597668 
L 121.802187 43.05173 
L 121.983814 42.688482 
L 122.437876 43.142544 
L 122.71031 41.871169 
L 122.71031 41.871169 
L 122.982751 42.416044 
L 123.073558 43.233354 
L 122.982751 43.142544 
L 122.71031 43.687419 
L 122.528683 43.687419 
L 122.256248 44.413919 
L 122.165435 44.323105 
L 121.893 44.413919 
L 121.893 44.413919 
L 121.529746 44.232291 
L 121.529746 44.232291 
L 121.438939 44.686353 
L 121.438939 44.686353 
L 121.257311 44.595543 
L 121.257311 44.595543 
L 121.529746 44.232291 
L 121.711373 44.777167 
L 121.802187 44.595543 
L 121.893 45.049604 
L 121.983814 44.86798 
L 122.165435 45.049604 
L 122.437876 44.686353 
L 122.528683 44.86798 
L 122.801124 44.323105 
L 122.891937 44.595543 
L 122.982751 44.050667 
L 123.073558 44.413919 
L 123.073558 43.959853 
L 123.073558 44.232291 
L 123.164372 43.233354 
L 123.255186 43.505792 
L 123.164372 42.960916 
L 123.164372 43.142544 
L 123.255186 42.779292 
L 123.345999 41.326293 
L 123.345999 41.507917 
L 123.436813 40.963045 
L 123.52762 41.144669 
L 123.602776 41.069513 
L 123.800061 40.781418 
L 123.800061 40.781418 
L 124.072495 37.87542 
L 124.072495 37.87542 
L 122.347062 29.157427 
L 122.528683 29.793109 
L 122.71031 29.520675 
L 122.619496 29.974736 
L 122.619496 29.520675 
L 122.528683 29.157427 
L 122.437876 29.520675 
L 122.528683 29.339047 
L 122.528683 29.248234 
L 122.71031 29.611488 
L 122.71031 29.248234 
L 122.801124 29.520675 
L 122.891937 29.157427 
L 122.844536 29.805075 
L 122.619496 30.973674 
L 122.528683 33.153175 
L 122.165435 34.515361 
L 121.983814 34.696985 
L 121.711373 35.605108 
L 121.529746 35.605108 
L 121.257311 36.422421 
L 120.984877 36.422421 
L 120.712436 36.967297 
L 120.349188 36.785669 
L 120.16756 37.330545 
L 119.98594 37.058107 
L 119.713499 37.421358 
L 119.622685 37.058107 
L 119.441064 37.330545 
L 119.531871 36.422421 
L 119.713499 36.694859 
L 119.804312 36.240797 
L 120.16756 36.604045 
L 120.440001 36.149983 
L 120.803249 36.513235 
L 121.257311 36.240797 
L 121.802187 36.785669 
L 122.437876 36.604045 
L 122.437876 36.604045 
L 122.074621 45.776104 
L 121.620559 45.68529 
L 121.620559 45.68529 
L 120.440001 46.230166 
L 120.076747 46.684227 
L 120.076747 46.684227 
L 118.987002 46.684227 
L 118.442127 46.41179 
L 118.169686 46.865855 
L 118.078872 46.41179 
L 118.078872 46.593417 
L 118.2605 46.502603 
L 118.442127 46.139355 
L 118.442127 46.775041 
L 118.623748 46.502603 
L 118.987002 47.319916 
L 119.07781 47.229103 
L 119.168623 48.137229 
L 119.168623 47.319916 
L 119.259437 47.410727 
L 119.531871 46.230166 
L 119.622685 46.41179 
L 119.531871 45.776104 
L 119.622685 45.957728 
L 119.713499 44.86798 
L 119.804312 44.958791 
L 119.98594 44.595543 
L 119.895126 46.502603 
L 119.895126 46.41179 
L 119.804312 45.866917 
L 119.713499 46.048541 
L 119.804312 46.593417 
L 119.895126 46.502603 
L 119.895126 46.139355 
L 119.895126 46.593417 
L 119.98594 46.593417 
L 120.076747 46.320979 
L 120.16756 46.865855 
L 120.16756 46.502603 
L 120.076747 46.956665 
L 120.16756 46.41179 
L 120.076747 46.502603 
L 119.98594 46.41179 
L 119.98594 46.41179 
L 119.98594 46.865855 
L 120.076747 46.684227 
L 120.258374 46.775041 
L 120.258374 46.41179 
L 120.258374 46.41179 
L 119.531871 47.592354 
L 119.259437 47.229103 
L 119.168623 47.683164 
L 118.987002 47.229103 
L 118.896189 47.683164 
L 118.805375 47.138292 
L 118.714561 47.410727 
L 118.623748 46.775041 
L 118.623748 46.775041 
L 118.351313 46.320979 
L 118.169686 46.502603 
L 118.169686 46.502603 
L 117.988065 46.230166 
L 117.806438 45.322042 
L 117.715624 46.048541 
L 117.715624 45.866917 
L 117.806438 46.320979 
L 117.806438 46.320979 
L 117.715624 46.41179 
L 117.624811 46.139355 
L 117.715624 46.502603 
L 117.715624 46.139355 
L 117.806438 46.230166 
L 117.806438 46.139355 
L 117.715624 46.502603 
L 117.806438 46.457196 
L 117.715624 46.956665 
L 117.806438 46.320979 
L 117.806438 46.502603 
L 117.988065 46.502603 
L 118.2605 46.865855 
L 118.2605 46.865855 
L 118.896189 46.593417 
L 119.259437 46.048541 
L 119.441064 46.230166 
L 119.622685 45.59448 
L 119.895126 45.59448 
L 120.16756 44.050667 
L 120.258374 44.232291 
L 120.16756 43.142544 
L 120.076747 43.505792 
L 119.98594 43.142544 
L 119.895126 43.596605 
L 119.713499 43.324168 
L 119.531871 43.869043 
L 119.259437 43.687419 
L 119.07781 44.232291 
L 118.896189 43.959853 
L 118.805375 44.504729 
L 118.714561 44.323105 
L 118.714561 44.686353 
L 118.714561 44.232291 
L 118.714561 44.504729 
L 118.896189 44.141481 
L 118.714561 44.504729 
L 118.714561 44.141481 
L 118.714561 44.686353 
L 118.623748 44.323105 
L 118.532941 44.686353 
L 118.623748 44.232291 
L 118.714561 44.504729 
L 118.714561 44.141481 
L 118.623748 44.686353 
L 118.532941 44.504729 
L 118.442127 44.958791 
L 118.532941 44.323105 
L 118.623748 44.595543 
L 118.532941 45.59448 
L 118.442127 45.231228 
L 118.351313 45.59448 
L 118.351313 45.59448 
L 117.624811 45.59448 
L 117.352376 46.320979 
L 116.989128 46.41179 
L 116.625873 47.229103 
L 116.353439 47.319916 
L 116.171812 48.318854 
L 116.262625 49.226977 
L 116.535066 49.317791 
L 116.898314 49.953476 
L 117.170749 49.953476 
L 117.806438 51.860537 
L 117.897252 51.769727 
L 118.169686 52.132975 
L 118.442127 51.769727 
L 118.532941 52.132975 
L 118.714561 52.132975 
L 118.623748 52.950288 
L 118.532941 53.676787 
L 118.169686 53.767601 
L 118.078872 54.494101 
L 118.078872 54.494101 
L 117.715624 55.2206 
L 117.534004 55.038976 
L 117.624811 56.401161 
L 117.806438 56.037913 
L 118.169686 56.219537 
L 118.623748 55.583848 
L 118.987002 55.674662 
L 119.259437 55.2206 
L 119.622685 55.583848 
L 119.804312 55.402224 
L 119.98594 56.219537 
L 120.16756 56.310348 
L 120.16756 56.310348 
L 120.16756 56.764413 
L 120.076747 56.582785 
L 119.98594 56.946037 
L 119.98594 56.946037 
L 119.98594 58.217411 
L 120.076747 58.217411 
L 120.16756 58.671473 
L 120.349188 58.308222 
L 120.621622 58.762287 
L 120.621622 58.762287 
L 121.348125 58.671473 
L 121.620559 57.944974 
L 121.802187 58.126598 
L 121.802187 57.581722 
L 121.711373 57.581722 
L 121.348125 59.125535 
L 121.529746 58.126598 
L 121.711373 58.489849 
L 121.711373 58.217411 
L 121.620559 58.58066 
L 121.620559 58.58066 
L 121.529746 58.671473 
L 121.620559 58.126598 
L 121.438939 58.671473 
L 121.348125 58.308222 
L 121.348125 58.762287 
L 121.348125 58.399036 
L 121.257311 58.762287 
L 121.257311 58.308222 
L 121.257311 58.308222 
L 121.257311 58.217411 
L 121.438939 58.399036 
L 121.438939 58.399036 
L 121.711373 57.127661 
L 121.529746 57.627129 
L 121.348125 58.035784 
L 121.166498 57.672536 
L 120.984877 57.944974 
L 120.712436 57.581722 
L 120.349188 57.944974 
L 120.076747 57.490912 
L 119.622685 57.490912 
L 119.350251 57.03685 
L 119.07781 57.127661 
L 118.805375 56.491975 
L 118.532941 56.582785 
L 118.442127 56.037913 
L 118.351313 56.128723 
L 118.169686 55.583848 
L 117.897252 55.856286 
L 117.715624 55.402224 
L 117.715624 55.402224 
L 117.261563 55.947099 
L 116.989128 56.673599 
L 116.625873 56.764413 
L 116.262625 57.581722 
L 115.899377 57.944974 
L 115.71775 58.671473 
L 115.445316 58.943911 
L 115.354502 59.67041 
L 115.445316 59.579597 
L 115.536129 60.033658 
L 115.536129 59.942848 
L 115.626936 59.307159 
L 115.808564 59.67041 
L 115.808564 59.67041 
L 116.171812 59.307159 
L 116.444253 58.671473 
L 116.535066 58.943911 
L 116.535066 58.943911 
L 116.807501 58.671473 
L 116.716687 58.217411 
L 116.625873 58.58066 
L 116.353439 58.217411 
L 115.990191 58.671473 
L 115.445316 58.217411 
L 114.90044 58.58066 
L 114.90044 58.58066 
L 113.901503 58.217411 
L 113.447441 57.490912 
L 113.175 57.400098 
L 112.902566 56.491975 
L 112.902566 56.491975 
L 112.35769 53.131912 
L 112.448504 51.860537 
L 112.539318 51.043227 
L 112.720938 51.224851 
L 112.902566 50.498352 
L 112.720938 50.8616 
L 112.448504 50.498352 
L 112.085256 50.679976 
L 111.812815 50.225914 
L 111.722001 50.589166 
L 111.540381 50.1351 
L 111.540381 50.589166 
L 111.26794 49.771852 
L 111.177126 50.225914 
L 111.26794 49.681039 
L 111.086319 50.1351 
L 110.995505 49.681039 
L 110.995505 50.225914 
L 110.995505 50.225914 
L 110.904691 49.953476 
L 110.995505 50.225914 
L 110.995505 49.862666 
L 110.904691 50.316728 
L 110.904691 50.04429 
L 110.904691 50.498352 
L 110.904691 50.1351 
L 110.904691 50.589166 
L 110.904691 50.225914 
L 111.086319 50.589166 
L 111.086319 50.1351 
L 111.177126 50.1351 
L 111.26794 50.589166 
L 111.26794 50.589166 
L 111.358753 50.316728 
L 111.358753 50.316728 
L 111.449567 50.589166 
L 111.540381 50.407538 
L 111.722001 50.952414 
L 111.994442 50.77079 
L 112.176063 51.224851 
L 112.448504 51.043227 
L 112.630125 51.497289 
L 112.630125 50.952414 
L 112.630125 51.134038 
L 112.448504 50.407538 
L 112.266877 50.316728 
L 112.085256 49.226977 
L 112.085256 49.226977 
L 110.087382 45.68529 
L 109.360879 45.049604 
L 109.360879 45.049604 
L 107.272191 42.052793 
L 106.727315 42.052793 
L 106.636508 41.689545 
L 107.09057 42.234417 
L 107.363005 42.325231 
L 107.635446 42.960916 
L 107.453818 43.596605 
L 106.999756 43.414981 
L 106.545695 44.050667 
L 106.18244 43.869043 
L 105.819192 44.595543 
L 105.637571 44.686353 
L 105.274317 45.59448 
L 105.001882 45.776104 
L 104.820255 46.865855 
L 104.729441 47.864792 
L 104.54782 47.955602 
L 104.002945 48.772915 
L 103.639697 48.682102 
L 103.094822 49.408601 
L 102.64076 49.317791 
L 102.277505 49.590228 
L 102.277505 49.590228 
L 100.279631 49.862666 
L 99.825569 49.681039 
L 99.462321 50.225914 
L 99.462321 50.225914 
L 98.37257 50.498352 
L 97.918508 50.407538 
L 97.827695 50.952414 
L 97.827695 50.77079 
L 97.55526 51.678913 
L 97.282819 51.588103 
L 96.828758 52.58704 
L 96.283882 52.768664 
L 95.6482 53.585974 
L 95.103324 53.313539 
L 95.103324 53.313539 
L 95.466572 52.405413 
L 95.82982 52.405413 
L 96.102261 51.588103 
L 96.193075 51.769727 
L 96.011448 51.406475 
L 95.739013 51.860537 
L 95.557386 51.678913 
L 95.557386 51.678913 
L 95.466572 52.223788 
L 95.466572 52.223788 
L 96.102261 52.859474 
L 96.102261 52.859474 
L 96.828758 52.768664 
L 96.828758 52.768664 
L 99.462321 51.860537 
L 100.188824 51.134038 
L 100.642885 51.224851 
L 100.91532 50.407538 
L 101.278568 50.589166 
L 101.460195 49.953476 
L 101.460195 50.04429 
L 101.278568 49.317791 
L 101.096947 49.499415 
L 100.824506 48.863729 
L 100.279631 48.954539 
L 99.643948 48.318854 
L 98.826632 48.318854 
L 98.826632 48.318854 
L 93.559512 45.231228 
L 93.014636 45.049604 
L 92.923823 44.141481 
L 93.014636 44.323105 
L 93.287077 43.869043 
L 93.468698 44.232291 
L 93.559512 44.050667 
L 93.650325 44.595543 
L 93.650325 44.595543 
L 92.560574 47.047479 
L 92.742202 48.046416 
L 92.742202 48.046416 
L 93.831946 49.408601 
L 93.831946 49.408601 
L 94.558449 50.952414 
L 94.467635 51.678913 
L 94.195201 51.315665 
L 93.831946 51.497289 
L 93.377884 50.8616 
L 93.377884 50.8616 
L 92.106513 49.408601 
L 92.106513 49.408601 
L 90.471886 42.416044 
L 90.744327 42.325231 
L 91.198389 41.326293 
L 91.198389 41.326293 
L 91.38001 40.599794 
L 91.38001 40.599794 
L 90.744327 39.782481 
L 90.108638 39.782481 
L 89.472949 39.055981 
L 88.837267 38.965171 
L 88.292391 38.420296 
L 88.201578 38.783544 
L 88.01995 38.420296 
L 87.83833 38.60192 
L 87.656702 38.147858 
L 87.565889 38.420296 
L 87.293454 37.966234 
L 87.021013 38.238671 
L 86.476138 37.693796 
L 86.203703 37.87542 
L 85.840455 37.239734 
L 85.29558 37.330545 
L 84.841518 36.694859 
L 84.932325 36.694859 
L 85.204766 36.05917 
L 85.29558 36.240797 
L 85.023139 34.696985 
L 84.932325 34.696985 
L 84.478263 33.788861 
L 84.478263 33.788861 
L 84.659891 33.334796 
L 85.023139 32.880734 
L 85.113953 33.153175 
L 85.113953 32.517486 
L 84.841518 32.517486 
L 84.478263 31.972611 
L 84.024202 32.063424 
L 83.660954 31.427735 
L 83.297706 31.790983 
L 83.116078 31.427735 
L 83.025265 31.972611 
L 82.843644 31.70017 
L 82.480389 32.063424 
L 82.117141 31.609363 
L 81.663079 31.70017 
L 81.299831 31.064487 
L 81.299831 31.064487 
L 80.936583 30.156364 
L 81.209018 30.337985 
L 81.572266 29.611488 
L 81.935514 29.520675 
L 81.935514 29.520675 
L 82.480389 27.976862 
L 82.843644 28.158489 
L 83.025265 27.159552 
L 83.025265 27.159552 
L 83.479326 27.5228 
L 83.660954 27.159552 
L 83.660954 27.431987 
L 83.660954 26.887111 
L 83.660954 26.887111 
L 83.297706 27.159552 
L 83.116078 26.887111 
L 82.75283 27.341173 
L 82.75283 27.341173 
L 82.117141 27.068739 
L 82.298768 26.614677 
L 82.389582 26.977925 
L 82.571203 26.614677 
L 82.571203 27.159552 
L 82.75283 26.614677 
L 82.75283 26.977925 
L 82.934451 26.614677 
L 83.116078 27.068739 
L 83.297706 26.887111 
L 83.388519 27.431987 
L 83.388519 27.341173 
L 83.297706 27.795235 
L 83.025265 27.613614 
L 82.571203 28.249297 
L 82.117141 28.158489 
L 81.390645 28.703365 
L 81.390645 28.703365 
L 79.574391 29.793109 
L 79.392771 30.88286 
L 79.392771 30.88286 
L 78.666268 32.6083 
L 78.393833 32.426673 
L 78.121392 33.062362 
L 77.939772 33.153175 
L 77.939772 33.153175 
L 77.394896 33.788861 
L 77.394896 33.42561 
L 77.213269 33.879671 
L 77.031642 33.879671 
L 76.850021 34.606171 
L 76.57758 34.787795 
L 76.668393 35.786732 
L 76.850021 35.877546 
L 77.213269 36.967297 
L 77.213269 36.967297 
L 77.576517 37.602982 
L 77.576517 38.147858 
L 77.576517 38.057044 
L 77.122455 38.874357 
L 76.759207 38.783544 
L 76.395959 39.600857 
L 76.214332 39.419233 
L 76.305145 39.873294 
L 76.486773 39.510043 
L 76.668393 39.69167 
L 76.940834 39.419233 
L 77.213269 39.873294 
L 77.213269 39.873294 
L 77.758144 39.782481 
L 78.212206 39.146795 
L 78.666268 39.055981 
L 78.757081 39.600857 
L 78.757081 39.419233 
L 78.666268 39.782481 
L 78.757081 39.146795 
L 78.757081 39.237605 
L 78.666268 38.783544 
L 78.575454 39.055981 
L 78.30302 38.60192 
L 77.939772 39.055981 
L 77.485703 38.60192 
L 76.940834 39.055981 
L 76.123518 38.60192 
L 75.487836 38.874357 
L 74.761333 38.147858 
L 74.307271 38.147858 
L 73.762396 37.330545 
L 73.762396 37.330545 
L 72.036959 36.694859 
L 71.492084 36.422421 
L 71.492084 36.422421 
L 70.220709 36.967297 
L 69.766647 37.602982 
L 69.403399 37.512169 
L 69.221772 38.238671 
L 69.312585 38.057044 
L 69.494209 38.511106 
L 69.766647 38.147858 
L 69.766647 38.692733 
L 69.494209 38.692733 
L 69.040148 39.328419 
L 68.404462 39.510043 
L 67.677962 40.236543 
L 67.042273 40.327356 
L 66.406587 41.053856 
L 66.13415 40.872232 
L 66.043336 41.780355 
L 65.770898 41.689545 
L 65.316837 42.052793 
L 64.953589 41.689545 
L 64.953589 41.689545 
L 65.135213 41.053856 
L 65.316837 41.326293 
L 65.226026 40.963045 
L 65.226026 40.963045 
L 64.499523 42.052793 
L 64.499523 42.052793 
L 64.590337 41.507917 
L 64.499523 41.871169 
L 64.408713 41.780355 
L 64.499523 41.507917 
L 64.499523 41.507917 
L 64.953589 41.507917 
L 64.953589 41.144669 
L 64.862775 41.689545 
L 64.862775 41.689545 
L 64.681151 42.143606 
L 64.590337 43.05173 
L 64.317899 43.142544 
L 64.227089 44.050667 
L 64.227089 43.959853 
L 64.317899 44.413919 
L 64.317899 44.413919 
L 64.317899 45.322042 
L 64.317899 45.322042 
L 63.682214 47.410727 
L 63.682214 47.138292 
L 63.682214 47.138292 
L 63.228152 47.410727 
L 62.864901 47.955602 
L 62.320025 47.683164 
L 62.320025 47.683164 
L 62.410839 47.229103 
L 62.229215 47.50154 
L 62.138401 47.319916 
L 61.956777 47.773978 
L 62.138401 47.50154 
L 62.229215 47.773978 
L 62.229215 47.319916 
L 62.410839 47.683164 
L 62.501652 47.319916 
L 62.501652 47.773978 
L 62.501652 47.592354 
L 62.320025 47.50154 
L 62.138401 48.046416 
L 61.775153 48.137229 
L 61.411902 48.772915 
L 61.04865 48.863729 
L 60.594588 49.499415 
L 60.140527 49.226977 
L 60.412964 49.226977 
L 60.412964 48.772915 
L 60.23134 49.317791 
L 59.958903 49.226977 
L 59.958903 49.226977 
L 59.14159 50.04429 
L 59.14159 50.04429 
L 58.505904 50.8616 
L 58.505904 51.406475 
L 58.778341 51.134038 
L 58.959966 51.497289 
L 59.050779 51.134038 
L 59.050779 51.678913 
L 58.959966 51.406475 
L 58.778341 51.951351 
L 58.778341 51.406475 
L 58.596714 51.860537 
L 58.41509 51.588103 
L 58.142652 52.132975 
L 58.142652 52.132975 
L 57.506967 52.768664 
L 57.143715 52.768664 
L 57.143715 52.768664 
L 56.871278 53.858411 
L 56.871278 53.767601 
L 57.052905 54.584911 
L 57.234529 54.675725 
L 57.416153 55.493038 
L 57.416153 55.493038 
L 58.505904 57.581722 
L 58.687528 57.309285 
L 58.687528 57.309285 
L 58.505904 58.399036 
L 59.232403 58.308222 
L 58.233466 58.489849 
L 58.051842 58.217411 
L 57.870215 58.671473 
L 57.870215 58.489849 
L 57.961028 58.853097 
L 58.051842 58.399036 
L 58.233466 58.671473 
L 58.41509 58.489849 
L 58.41509 59.216349 
L 58.596714 59.034721 
L 58.596714 59.034721 
L 58.778341 59.125535 
L 58.778341 59.125535 
L 58.687528 59.761224 
L 58.687528 59.761224 
L 58.324276 59.761224 
L 58.051842 59.307159 
L 57.779404 59.488786 
L 57.416153 58.943911 
L 57.234529 59.034721 
L 57.052905 58.58066 
L 56.871278 58.943911 
L 56.59884 58.671473 
L 56.235592 59.307159 
L 55.963154 59.125535 
L 55.963154 59.125535 
L 54.691779 59.67041 
L 54.691779 59.67041 
L 54.056093 59.034721 
L 53.602032 58.308222 
L 53.057156 58.489849 
L 52.693905 57.944974 
L 52.421467 58.217411 
L 52.239843 57.672536 
L 52.058219 58.035784 
L 51.785781 57.76335 
L 51.513344 58.126598 
L 51.42253 57.85416 
L 51.240906 58.308222 
L 50.968468 58.035784 
L 50.786844 58.58066 
L 50.60522 58.489849 
L 50.423593 58.853097 
L 50.423593 58.671473 
L 50.514406 59.125535 
L 50.423593 58.762287 
L 50.241969 59.216349 
L 50.151158 59.034721 
L 49.969531 59.307159 
L 49.878721 59.034721 
L 49.878721 59.216349 
L 50.241969 58.762287 
L 50.241969 58.762287 
L 50.060345 58.671473 
L 49.787907 58.853097 
L 49.333845 58.217411 
L 48.153284 57.218474 
L 47.971657 56.310348 
L 47.790033 56.219537 
L 47.608409 55.402224 
L 47.335971 55.2206 
L 47.063533 54.312476 
L 47.063533 54.584911 
L 45.973784 54.494101 
L 45.610534 54.221663 
L 44.793221 54.312476 
L 44.884035 55.583848 
L 44.702409 55.493038 
L 44.520785 56.219537 
L 44.339159 56.128723 
L 44.339159 56.128723 
L 43.521848 56.764413 
L 43.521848 56.764413 
L 42.795349 55.583848 
L 42.613723 55.674662 
L 42.432097 55.038976 
L 42.432097 55.038976 
L 42.159661 54.857349 
L 42.159661 54.857349 
L 42.250473 55.856286 
L 42.250473 55.674662 
L 42.341285 56.219537 
L 42.250473 56.037913 
L 42.250473 56.491975 
L 42.341285 56.037913 
L 42.432097 56.401161 
L 42.205066 55.856286 
L 41.978035 55.311414 
L 41.796411 55.2206 
L 41.796411 55.2206 
L 41.705598 52.67785 
L 41.705598 52.67785 
L 42.341285 50.589166 
L 42.341285 50.589166 
L 43.158598 48.591291 
L 44.429971 46.41179 
L 44.429971 46.41179 
L 45.792158 44.777167 
L 46.337034 44.777167 
L 46.700283 44.232291 
L 47.063533 44.413919 
L 47.063533 44.413919 
L 47.426785 43.596605 
L 47.517595 42.870106 
L 47.517595 43.142544 
L 47.335971 42.870106 
L 47.154347 43.142544 
L 46.972721 42.597668 
L 46.791096 42.597668 
L 46.791096 42.597668 
L 46.518658 42.143606 
L 46.246222 41.417107 
L 46.064596 41.598731 
L 45.882972 41.053856 
L 45.701346 41.417107 
L 45.428909 41.144669 
L 45.247285 41.417107 
L 45.065659 40.690608 
L 44.884035 40.690608 
L 44.793221 39.782481 
L 44.884035 40.872232 
L 44.884035 40.872232 
L 45.156471 41.417107 
L 45.428909 42.052793 
L 45.519721 41.961979 
L 45.792158 42.416044 
L 46.064596 41.961979 
L 46.427846 41.961979 
L 46.881908 41.23548 
L 46.881908 41.23548 
L 48.244094 39.964108 
L 48.244094 39.964108 
L 50.060345 38.511106 
L 50.060345 38.511106 
L 52.239843 37.87542 
L 53.147967 38.329482 
L 53.874466 38.057044 
L 54.510155 38.692733 
L 55.145841 38.420296 
L 55.78153 38.874357 
L 55.78153 38.874357 
L 56.962091 38.511106 
L 56.962091 38.511106 
L 57.234529 37.693796 
L 57.234529 37.87542 
L 57.325343 37.058107 
L 57.143715 37.148921 
L 56.871278 36.876483 
L 56.871278 36.876483 
L 54.964217 39.510043 
L 54.964217 38.965171 
L 55.145841 38.692733 
L 55.145841 38.692733 
L 56.053968 35.514298 
L 56.053968 35.514298 
L 57.052905 33.243982 
L 57.597777 32.699107 
L 57.597777 32.699107 
L 57.961028 31.881797 
L 57.961028 30.88286 
L 57.961028 31.246108 
L 57.779404 30.88286 
L 57.688591 31.155301 
L 57.597777 30.247171 
L 57.597777 29.520675 
L 57.506967 29.702302 
L 57.325343 29.066613 
L 57.325343 29.066613 
L 57.234529 28.34011 
L 57.325343 28.521738 
L 57.325343 27.976862 
L 57.416153 28.249297 
L 57.597777 27.5228 
L 57.779404 27.431987 
L 57.870215 26.887111 
L 58.051842 27.159552 
L 58.142652 26.705491 
L 58.233466 26.977925 
L 58.233466 26.977925 
L 58.505904 26.705491 
L 58.596714 26.160615 
L 58.687528 26.342236 
L 58.778341 25.888174 
L 58.687528 26.342236 
L 58.505904 25.978988 
L 58.505904 26.160615 
L 58.596714 25.79736 
L 58.596714 25.978988 
L 58.778341 25.524926 
L 58.687528 25.661147 
L 58.687528 25.343299 
L 58.596714 25.61574 
L 58.324276 25.61574 
L 58.41509 24.435175 
L 58.41509 24.435175 
L 58.505904 24.071927 
L 58.505904 24.525989 
L 58.41509 24.344362 
L 58.233466 23.981113 
L 58.233466 24.344362 
L 58.051842 23.981113 
L 57.961028 24.344362 
L 57.961028 24.071927 
L 57.779404 24.435175 
L 57.779404 24.435175 
L 57.688591 24.344362 
L 57.597777 23.981113 
L 57.688591 24.435175 
L 57.688591 24.344362 
L 57.779404 23.981113 
L 57.779404 24.435175 
L 57.597777 24.344362 
L 57.597777 24.162741 
L 57.688591 24.525989 
L 57.779404 24.435175 
L 57.779404 24.980051 
L 58.051842 24.616803 
L 58.324276 25.070864 
L 58.596714 24.889237 
L 58.959966 25.434112 
L 59.414027 25.161678 
L 60.140527 25.61574 
L 61.04865 25.343299 
L 61.04865 25.343299 
L 64.408713 26.069801 
L 64.408713 26.069801 
L 69.040148 27.886048 
L 69.040148 27.886048 
L 69.403399 29.520675 
L 69.585023 29.339047 
L 69.675837 29.883923 
L 69.675837 29.883923 
L 70.039085 29.702302 
L 70.039085 29.883923 
L 69.675837 29.339047 
L 69.675837 29.339047 
L 69.403399 29.702302 
L 69.494209 29.339047 
L 69.494209 29.793109 
L 69.585023 29.248234 
L 69.494209 29.520675 
L 69.221772 29.248234 
L 69.221772 29.248234 
L 69.221772 29.883923 
L 69.221772 29.883923 
L 70.129898 29.702302 
L 70.765584 28.975799 
L 70.765584 28.975799 
L 71.401273 27.431987 
L 71.764521 28.067676 
L 71.764521 27.431987 
L 71.673708 27.431987 
L 71.401273 26.614677 
L 71.401273 26.705491 
L 71.673708 26.069801 
L 71.855335 26.342236 
L 71.746358 26.360403 
L 71.31046 26.43305 
L 71.31046 25.888174 
L 71.401273 27.068739 
L 71.582897 26.705491 
L 71.855335 27.431987 
L 71.855335 27.431987 
L 73.12671 28.612551 
L 73.12671 28.612551 
L 73.580772 30.06555 
L 73.399148 30.337985 
L 73.399148 30.337985 
L 73.12671 31.609363 
L 73.21752 32.6083 
L 73.21752 32.335859 
L 73.12671 33.062362 
L 72.945083 32.517486 
L 72.945083 32.699107 
L 73.035896 32.426673 
L 72.945083 31.881797 
L 72.763458 32.063424 
L 72.672645 31.518549 
L 72.491021 31.790983 
L 72.491021 31.790983 
L 72.218583 31.70017 
L 71.946145 31.427735 
L 71.673708 31.790983 
L 71.401273 31.518549 
L 71.401273 31.518549 
L 70.402336 32.426673 
L 70.039085 32.426673 
L 69.766647 33.062362 
L 69.494209 32.789921 
L 69.312585 33.334796 
L 69.221772 33.153175 
L 69.221772 33.698047 
L 69.312585 33.516423 
L 69.675837 34.333733 
L 69.675837 34.333733 
L 70.856398 35.514298 
L 70.856398 35.514298 
L 72.581834 37.058107 
L 73.12671 37.239734 
L 73.671582 38.147858 
L 74.216457 38.147858 
L 74.488895 38.965171 
L 74.579709 38.60192 
L 74.398081 39.055981 
L 74.125647 38.60192 
L 74.034833 39.055981 
L 74.216457 38.874357 
L 74.670519 39.510043 
L 75.124581 39.600857 
L 75.578643 40.236543 
L 76.123518 40.236543 
L 76.486773 41.23548 
L 76.486773 42.688482 
L 76.486773 42.688482 
L 76.668393 43.596605 
L 75.124581 43.687419 
L 75.124581 43.687419 
L 73.580772 44.413919 
L 73.580772 44.686353 
L 73.580772 44.686353 
L 74.125647 43.687419 
L 74.670519 44.232291 
L 75.124581 43.959853 
L 75.397022 44.323105 
L 75.76027 44.050667 
L 75.941897 44.232291 
L 76.032704 42.234417 
L 76.032704 42.688482 
L 76.214332 42.597668 
L 76.214332 42.597668 
L 75.578643 49.226977 
L 75.124581 49.317791 
L 74.852146 50.1351 
L 74.852146 50.1351 
L 74.398081 50.8616 
L 74.488895 50.679976 
L 75.033767 51.134038 
L 76.153789 53.313539 
L 76.305145 53.767601 
L 76.668393 53.767601 
L 76.668393 53.767601 
L 78.121392 54.130849 
L 78.575454 54.857349 
L 78.938709 54.675725 
L 79.12033 55.402224 
L 79.12033 55.311414 
L 79.165736 56.537382 
L 79.12033 57.76335 
L 79.211143 57.76335 
L 79.392771 58.671473 
L 79.756019 58.943911 
L 79.937646 59.67041 
L 80.119267 59.307159 
L 80.300894 59.761224 
L 80.573328 59.216349 
L 80.936583 59.488786 
L 81.481452 58.853097 
L 82.026327 59.034721 
L 82.843644 58.489849 
L 83.57014 58.58066 
L 84.115015 58.035784 
L 84.478263 58.126598 
L 84.750704 57.127661 
L 84.750704 56.219537 
L 84.841518 56.219537 
L 85.113953 55.493038 
L 85.477201 55.674662 
L 85.931262 55.311414 
L 87.414533 57.248746 
L 87.83833 58.035784 
L 88.01995 57.944974 
L 88.01995 58.489849 
L 88.292391 58.126598 
L 88.474012 58.489849 
L 88.564826 57.85416 
L 88.564826 57.944974 
L 88.201578 57.76335 
L 88.201578 57.76335 
L 88.110764 57.581722 
L 88.383198 57.127661 
L 88.746453 57.309285 
L 88.746453 57.309285 
L 91.38001 56.673599 
L 92.28814 56.128723 
L 93.014636 56.310348 
L 93.014636 56.310348 
L 93.559512 56.037913 
L 93.559512 55.583848 
L 93.559512 55.583848 
L 95.557386 54.675725 
L 95.557386 54.675725 
L 96.193075 54.766538 
L 96.193075 54.766538 
L 96.556323 55.583848 
L 96.647137 55.493038 
L 96.647137 55.493038 
L 97.373633 55.674662 
L 97.736888 56.037913 
L 98.009322 55.856286 
L 98.37257 56.219537 
L 98.554197 55.856286 
L 98.554197 55.856286 
L 98.917446 55.765475 
L 99.189887 56.310348 
L 99.280694 56.037913 
L 99.553135 56.582785 
L 99.553135 56.582785 
L 100.09801 57.03685 
L 100.188824 56.946037 
L 100.279631 57.490912 
L 100.461258 57.309285 
L 100.552072 57.672536 
L 100.642885 57.490912 
L 100.824506 57.85416 
L 100.642885 57.400098 
L 100.642885 57.672536 
L 100.552072 58.671473 
L 100.370444 58.762287 
L 100.188824 59.761224 
L 98.190949 64.574283 
L 98.190949 64.574283 
L 96.828758 66.027281 
L 96.828758 66.027281 
L 95.6482 68.206781 
L 95.6482 68.206781 
L 95.284952 69.205719 
L 95.466572 68.933281 
L 95.6482 69.205719 
L 95.6482 69.205719 
L 95.920634 69.387343 
L 96.102261 69.205719 
L 96.556323 71.294405 
L 96.556323 71.294405 
L 96.374696 72.656592 
L 96.193075 72.92903 
L 95.920634 73.837153 
L 95.920634 73.837153 
L 95.194138 74.109591 
L 95.194138 74.109591 
L 94.740076 74.472841 
L 94.558449 74.472841 
L 94.376821 75.19934 
L 94.104387 75.290153 
L 94.104387 75.290153 
L 93.741139 76.379902 
L 93.559512 77.469652 
L 93.559512 77.469652 
L 93.196264 78.377776 
L 93.196264 78.377776 
L 92.015699 79.285901 
L 92.015699 79.285901 
L 90.653514 79.285901 
L 90.653514 79.285901 
L 89.472949 79.739963 
L 88.837267 80.194026 
L 88.474012 80.0124 
L 88.474012 80.0124 
L 88.01995 80.284838 
L 87.83833 79.830775 
L 87.565889 80.375651 
L 87.293454 80.194026 
L 86.748579 80.829712 
L 86.294517 80.829712 
L 85.804129 81.39275 
L 85.29558 81.556213 
L 85.29558 81.556213 
L 85.204766 81.283775 
L 85.204766 82.010274 
L 85.113953 81.82865 
L 85.023139 82.010274 
L 85.023139 81.737838 
L 85.023139 82.373525 
L 85.023139 81.737838 
L 85.204766 82.101087 
L 85.113953 81.647025 
L 85.204766 82.010274 
L 85.29558 81.647025 
L 85.204766 82.010274 
L 85.113953 81.647025 
L 85.113953 81.919462 
L 84.750704 81.556213 
L 84.478263 81.919462 
L 84.115015 81.647025 
L 83.751767 82.010274 
L 83.751767 82.010274 
L 83.025265 81.919462 
L 82.298768 81.647025 
L 81.753893 81.919462 
L 81.02739 81.374587 
L 80.482515 81.556213 
L 79.937646 80.920525 
L 79.483578 81.192962 
L 79.211143 80.7389 
L 79.211143 81.011337 
L 79.301957 80.648088 
L 79.12033 81.011337 
L 79.029516 80.557276 
L 78.938709 80.920525 
L 78.757081 80.557276 
L 78.575454 80.7389 
L 78.212206 80.194026 
L 77.939772 80.375651 
L 77.758144 79.830775 
L 77.667331 80.194026 
L 77.667331 79.921588 
L 78.212206 80.103213 
L 78.30302 80.375651 
L 78.48464 80.194026 
L 78.48464 80.648088 
L 78.30302 80.284838 
L 78.212206 80.648088 
L 78.030579 80.375651 
L 77.758144 80.648088 
L 77.758144 80.648088 
L 76.850021 80.103213 
L 76.759207 80.375651 
L 76.940834 79.921588 
L 76.759207 80.284838 
L 76.668393 79.830775 
L 76.305145 80.194026 
L 75.851084 79.830775 
L 75.487836 80.284838 
L 75.306208 79.830775 
L 75.306208 79.830775 
L 75.941897 80.0124 
L 76.305145 80.466463 
L 76.486773 80.284838 
L 76.305145 80.7389 
L 76.214332 80.466463 
L 75.76027 80.7389 
L 75.397022 80.284838 
L 74.94296 80.648088 
L 74.579709 80.0124 
L 74.579709 80.194026 
L 74.670519 79.64915 
L 74.852146 79.830775 
L 74.94296 79.376713 
L 74.94296 79.64915 
L 74.670519 79.195089 
L 74.488895 79.467526 
L 74.579709 79.195089 
L 74.852146 79.739963 
L 74.94296 79.467526 
L 75.124581 79.921588 
L 74.94296 79.830775 
L 74.761333 80.194026 
L 74.488895 79.921588 
L 74.488895 80.375651 
L 74.579709 80.0124 
L 74.670519 80.375651 
L 74.670519 79.830775 
L 74.488895 80.194026 
L 74.488895 80.0124 
L 74.398081 79.830775 
L 74.488895 80.0124 
L 74.579709 79.739963 
L 74.488895 80.103213 
L 74.670519 79.830775 
L 74.670519 80.194026 
L 74.579709 79.830775 
L 74.488895 80.375651 
L 74.488895 79.830775 
L 74.670519 80.194026 
L 74.670519 79.830775 
L 74.852146 80.284838 
L 74.852146 79.830775 
L 74.761333 79.921588 
L 74.670519 80.375651 
L 74.579709 79.830775 
L 74.488895 80.375651 
L 74.488895 80.375651 
L 74.670519 80.375651 
L 74.670519 79.830775 
L 74.670519 80.375651 
L 74.852146 80.194026 
L 74.852146 79.830775 
L 74.852146 79.830775 
" clip-path="url(#pff16c65b5f)" style="fill: none; stroke: #44525c; stroke-width: 1.2; stroke-linecap: round"/>
   </g>
   <g id="line2d_2">
    <path d="M 23.072727 51.700909 
L 23.072727 74.020908 
L 24.087273 76.049999 
L 28.145455 80.10818 
L 31.189091 81.122725 
L 39.305455 82.137271 
L 65.683636 84.166362 
L 107.28 84.166362 
L 113.367273 83.151816 
L 117.425455 81.122725 
L 119.454545 79.093635 
L 120.469091 77.064544 
L 121.483636 74.020908 
L 122.498182 68.948181 
L 123.512727 62.860908 
L 124.527273 55.759091 
L 124.527273 33.439092 
L 123.512727 31.410001 
L 119.454545 27.35182 
L 115.396364 26.337275 
L 100.178182 25.322729 
L 67.712727 23.293638 
L 33.218182 23.293638 
L 29.16 25.322729 
L 27.130909 27.35182 
L 26.116364 29.380911 
L 25.101818 32.424547 
L 24.087273 38.511819 
L 23.072727 51.700909 
" clip-path="url(#pff16c65b5f)" style="fill: none; stroke: #000000; stroke-width: 0.6; stroke-linecap: round"/>
   </g>
   <g id="line2d_3">
    <path d="M 96.829473 86.629938 
L 124.527273 86.629938 
" style="fill: none; stroke: #000000; stroke-linecap: round"/>
   </g>
   <g id="text_1">
    <!-- 50 cm -->
    <g transform="translate(98.827071 95.419867) scale(0.09 -0.09)">
     <defs>
      <path id="CMSS17-35" d="M 934 3752 
L 2502 3752 
L 2502 4160 
L 467 4160 
L 467 1781 
L 896 1781 
C 1011 2046 1248 2240 1555 2240 
C 1843 2240 2163 1989 2163 1266 
C 2163 493 1709 267 1376 267 
C 966 267 589 512 422 851 
L 218 499 
C 512 49 992 -128 1376 -128 
C 2118 -128 2701 497 2701 1253 
C 2701 2030 2182 2629 1562 2629 
C 1338 2629 1120 2553 934 2399 
L 934 3752 
z
" transform="scale(0.015625)"/>
      <path id="CMSS17-30" d="M 2758 2044 
C 2758 2405 2752 3077 2490 3596 
C 2227 4096 1805 4229 1504 4229 
C 1069 4229 698 3975 506 3570 
C 301 3146 243 2709 243 2044 
C 243 1589 262 1031 493 543 
C 755 5 1197 -128 1498 -128 
C 1894 -128 2278 81 2496 518 
C 2720 974 2758 1474 2758 2044 
z
M 1498 261 
C 1011 261 864 811 819 995 
C 742 1310 730 1614 730 2114 
C 730 2506 730 2948 851 3297 
C 998 3701 1254 3840 1498 3840 
C 1971 3840 2125 3372 2176 3208 
C 2272 2873 2272 2481 2272 2114 
C 2272 1526 2272 261 1498 261 
z
" transform="scale(0.015625)"/>
      <path id="CMSS17-63" d="M 2464 2541 
C 2464 2585 2170 2714 2093 2739 
C 1882 2816 1613 2816 1542 2816 
C 710 2816 211 2093 211 1363 
C 211 595 768 -64 1517 -64 
C 1946 -64 2253 76 2502 242 
L 2464 664 
C 2189 453 1869 337 1523 337 
C 1024 337 698 774 698 1369 
C 698 1831 909 2414 1549 2414 
C 1901 2414 2099 2343 2394 2145 
L 2464 2541 
z
" transform="scale(0.015625)"/>
      <path id="CMSS17-6d" d="M 4288 1877 
C 4288 2308 4179 2816 3462 2816 
C 2982 2816 2694 2516 2566 2331 
C 2451 2670 2182 2816 1798 2816 
C 1363 2816 1088 2568 941 2389 
L 941 2758 
L 474 2758 
L 474 0 
L 960 0 
L 960 1559 
C 960 1939 1101 2428 1555 2428 
C 2138 2428 2138 2016 2138 1829 
L 2138 0 
L 2624 0 
L 2624 1559 
C 2624 1939 2765 2428 3219 2428 
C 3802 2428 3802 2016 3802 1829 
L 3802 0 
L 4288 0 
L 4288 1877 
z
" transform="scale(0.015625)"/>
     </defs>
     <use xlink:href="#CMSS17-35" transform="scale(0.996264)"/>
     <use xlink:href="#CMSS17-30" transform="translate(46.843624 0) scale(0.996264)"/>
     <use xlink:href="#CMSS17-63" transform="translate(124.91636 0) scale(0.996264)"/>
     <use xlink:href="#CMSS17-6d" transform="translate(166.555182 0) scale(0.996264)"/>
    </g>
   </g>
  </g>
 </g>
 <defs>
  <clipPath id="pff16c65b5f">
   <rect x="18" y="12.96" width="111.6" height="81.54"/>
  </clipPath>
 </defs>
</svg>
